<?xml version="1.0" standalone="no"?>
<!DOCTYPE svg PUBLIC "-//W3C//DTD SVG 1.1//EN" "http://www.w3.org/Graphics/SVG/1.1/DTD/svg11.dtd" >
<svg xmlns="http://www.w3.org/2000/svg">
<metadata></metadata>
<defs>
<font id="pgvimregular" horiz-adv-x="0" >
<font-face units-per-em="2048" ascent="1638" descent="-410" />
<missing-glyph horiz-adv-x="497" />
<glyph unicode="&#xe4f;&#x22;" horiz-adv-x="927" />
<glyph unicode="&#xe24;&#xe32;" horiz-adv-x="1294" d="M57 672v12q45 35 103 61q49 23 118.5 43.5t159.5 20.5q59 0 123 -20.5t96 -55.5q16 -20 29 -41q6 8 21 23q8 8 16 14t18 14q23 16 43.5 28.5t42.5 21.5q45 16 99 16q127 0 190 -64q33 -31 51.5 -77.5t18.5 -112.5v-12v-824q0 -39 12 -47q10 -10 45 -10v-14h-180l2 878v23 v35q0 39 -18 73q-18 31 -48 52q-29 20 -65 28q-41 10 -74 11q-25 0 -43 -9q-20 -6 -47 -18q-10 -6 -22.5 -12.5t-22.5 -12.5q-8 -6 -15.5 -12t-15.5 -10q23 -51 23 -129v-582q0 -104 -25 -168q-29 -66 -65 -100q-39 -35 -84 -47q-47 -10 -86 -6l-36 8t-34 12q-29 12 -35 33 q4 16 10 24q6 16 17 23q14 10 22 10q12 4 29 -6q12 -12 16 -20q8 -12 15 -23q4 -4 9 -10t9 -10q10 -8 29 -9q33 -2 53 27q16 23 27 66q4 18 6 36.5t2 38.5v62v624q0 109 -55.5 158t-153.5 49q-53 0 -88 -6t-57 -12q-25 -8 -39 -17q10 -10 14 -23l8 -26q4 -14 4 -30v-437 q0 -10 2 -27.5t8.5 -35t18.5 -31.5t33 -20q29 -10 66.5 -2t66.5 22v-33q-20 -25 -49 -43q-25 -16 -59.5 -26.5t-79.5 -1.5q-47 8 -73 32.5t-38 55t-15.5 60.5t-3.5 48v32v57.5t1.5 72.5t1.5 78q0 92 2 203q0 33 -13 39q-14 8 -41 8z" />
<glyph unicode="&#xe26;&#xe32;" horiz-adv-x="1318" d="M55 55q8 -8 21 -14q16 -4 22 -4q12 0 19 12q4 8 6 15.5t4 17.5t3 17t1 18v24l2 482q0 35 -12 41t-41 6v14q45 35 102 61q49 23 119 42.5t160 19.5q61 0 124.5 -20.5t94.5 -55.5q16 -16 31 -41q4 6 10 12.5t12 12.5q8 8 16.5 14t18.5 14q23 16 44.5 28.5t43.5 21.5 q45 16 96 16q127 0 191 -64q70 -63 69 -190v-12v-824q1 -39 13 -47q10 -10 45 -10v-14h-180l4 878v23v35q0 39 -19 73q-16 27 -47 52q-33 20 -67 28q-41 10 -74 11q-20 0 -43 -9q-27 -8 -45 -18q-12 -6 -23.5 -12.5t-21.5 -12.5q-10 -8 -18.5 -13t-16.5 -11q12 -29 16 -60.5 t4 -68.5v-600q0 -53 -6 -85t-20 -65q-25 -63 -64 -100q-33 -33 -84 -47q-47 -10 -86 -6q-39 6 -69 18q-29 16 -35 35q2 4 4 11t6 13q4 10 16 23q14 10 23 10q12 4 29 -6q12 -12 16 -20q8 -12 14 -23q4 -4 9.5 -10t9.5 -10q10 -8 28 -9q33 -2 54 25q8 14 14 30.5t10 34.5 q4 20 7 39t3 39v62l3 624q0 111 -55.5 160t-155.5 49q-53 0 -87 -6t-57 -12q-25 -8 -39 -19q10 -10 13.5 -23t7.5 -26q2 -14 4 -31l-4 -366l-4 -139q-4 -61 -17 -88q-12 -31 -34 -37q-23 -8 -58 4q-39 14 -78 39z" />
<glyph />
<glyph />
<glyph unicode=" "  horiz-adv-x="497" />
<glyph unicode="&#x09;" horiz-adv-x="497" />
<glyph unicode="&#xa0;" horiz-adv-x="497" />
<glyph unicode="!" horiz-adv-x="296" d="M80 938h143l-47 -743h-49zM90 53q0 25 17.5 43.5t44.5 18.5t45 -18.5t18 -43.5q0 -27 -18.5 -45t-44.5 -18q-27 0 -44.5 18.5t-17.5 44.5z" />
<glyph unicode="&#x22;" horiz-adv-x="444" d="M84 1022h96l-20 -330h-56zM262 1022h96l-20 -330h-55z" />
<glyph unicode="#" horiz-adv-x="827" d="M82 295v72h156l28 192h-147v72h157l46 297h77l-45 -297h185l45 297h80l-46 -297h134v-72h-144l-30 -192h137v-72h-146l-45 -297h-80l45 297h-182l-45 -297h-80l45 297h-145zM315 367h185l28 192h-182z" />
<glyph unicode="$" horiz-adv-x="704" d="M78 197h12q25 -57 68 -95q43 -37 86 -51q37 -12 71 -12v383q-12 8 -20 12q-29 14 -54.5 30.5t-50.5 35.5q-47 35 -77 84q-33 47 -33 121q0 49 22 94q23 41 60 71q18 14 38.5 25.5t45.5 19.5q16 6 34.5 9.5t34.5 5.5v82h58v-82q6 -2 12 -2t12 -2q14 -2 27.5 -5t28.5 -8 l14 -4q6 -4 13 -5t14 -3q8 -2 14 -4l12 -4q8 -2 15 -2q20 0 24 24h16l13 -206h-17q-14 51 -53 86q-37 37 -78 51q-16 8 -33.5 11t-33.5 5v-340q8 -4 16 -9t17 -9l-9 4q23 -12 43.5 -24.5t42.5 -26.5q37 -23 74 -60q33 -37 51 -78q20 -47 21 -98q0 -55 -27 -104 q-25 -45 -67 -76q-20 -16 -44 -27.5t-49 -21.5q-18 -4 -35.5 -7t-33.5 -8v-98h-58v98q-45 0 -88 13q-47 12 -104 28q-8 0 -17 -8q-8 -6 -8 -16h-16zM184 719q0 -39 21 -66q10 -14 21.5 -26.5t25.5 -24.5q29 -23 63 -45v303q-23 -2 -45 -12q-41 -16 -61 -49q-25 -35 -25 -80z M373 43q27 6 51 18q38 21 63 58q23 31 23 84q0 57 -31 98q-16 20 -35.5 37.5t-44.5 34.5q-6 4 -13 9t-13 9v-348z" />
<glyph unicode="%" horiz-adv-x="942" d="M78 727q0 70 28 121q31 49 74 72q43 25 92 24q51 0 95 -24q33 -18 57 -50q43 -25 92 -28q41 -4 92 16.5t105 85.5h65l-540 -969h-70l502 891q-35 -31 -88.5 -52t-124.5 -5q12 -37 12 -82q0 -68 -29 -119q-29 -47 -73 -71q-45 -23 -93 -23q-55 0 -94 23q-43 23 -74 71 q-29 47 -28 119zM152 727q0 -55 18 -92q23 -41 47 -57q27 -20 59 -21q31 -2 60 16q27 19 45 58q16 41 14 96q0 53 -18 94q-23 39 -47 58q-31 20 -60 20q-31 2 -59 -16q-29 -18 -43 -58q-18 -39 -16 -98zM475 190q0 70 29 121q33 47 74 72q45 23 92 23q49 0 96 -25 q43 -23 72 -72q29 -47 28 -119q1 -71 -28 -118q-25 -45 -72 -72q-47 -23 -94 -25q-51 0 -94 25q-43 20 -74 72q-29 47 -29 118zM549 190q0 -55 18 -94q23 -39 47 -57q27 -16 60 -21q31 0 59 19q27 18 45 57q16 33 17 96q-5 58 -21 93q-16 37 -47 57q-29 23 -59 22 q-31 2 -60 -16t-43 -57q-18 -41 -16 -99z" />
<glyph unicode="&#x26;" horiz-adv-x="1040" d="M82 213q0 23 3 45.5t13 44.5q16 47 52 86q16 23 37.5 39t43.5 33q25 16 48.5 29.5t48.5 23.5q-14 23 -25.5 45.5t-21.5 44.5q-27 55 -27 117q0 57 27 106q29 49 75 80q51 29 119 29q35 0 76 -10q33 -10 63 -35q31 -25 45 -55q16 -37 17 -76q0 -66 -32 -109t-69 -69 q-45 -31 -100 -47l-24 36q41 23 73 52q29 25 51.5 59.5t22.5 77.5q0 47 -25 76q-18 27 -57 41q-33 8 -72 0q-39 -10 -61 -35q-27 -31 -33 -74q-6 -47 19 -111q6 -14 12 -26.5t12 -24.5q8 -12 15.5 -24.5l13.5 -22.5l31 -47q25 -37 49 -73t51 -70q27 -35 48.5 -60.5 t49.5 -60.5q0 2 21.5 34.5t48.5 69.5q31 43 67 99h160v-9q-12 -2 -27.5 -6t-33.5 -22q-23 -23 -51.5 -57.5t-55 -69.5t-46 -63.5t-25.5 -37.5q23 -23 44 -43t46 -37q31 -23 59.5 -30.5t52 -8.5t40 4t20.5 11l12 -8q-4 -12 -18.5 -26.5t-35 -28t-45 -22.5t-50.5 -9 q-29 0 -60 15t-58.5 35.5t-48 41t-26.5 29.5q-37 -37 -70 -58q-16 -12 -33.5 -22.5t-35.5 -18.5t-38 -13t-40 -9q-41 -6 -88 -6q-61 0 -107 18q-49 23 -79 51q-35 33 -50 74q-18 43 -18 88zM190 229q4 -63 41 -106q18 -23 43 -40t54 -26q39 -10 78.5 -0.5t73.5 27.5t61.5 43 t46.5 43q-33 35 -58.5 66.5t-54.5 70.5t-57.5 78t-57.5 80q-96 -49 -135 -113q-37 -66 -35 -123z" />
<glyph unicode="'" horiz-adv-x="266" d="M84 1022h94l-18 -330h-56z" />
<glyph unicode="(" horiz-adv-x="454" d="M84 469q14 129 84 250q39 70 90 133q49 66 115 115l33 -13q-78 -72 -125 -163q-49 -90 -74 -199t-25 -219q0 -115 25 -219t74 -201q51 -96 125 -164l-33 -12q-106 84 -176 196q-35 57 -59.5 117t-39.5 123q-31 123 -14 256z" />
<glyph unicode=")" horiz-adv-x="450" d="M53 -211q45 41 79 90t63 109q53 119 71 243q18 131 4 256q-16 131 -63 234q-14 33 -30.5 63.5t-35.5 61.5q-35 59 -88 108l33 13q33 -25 60.5 -53.5t54.5 -61.5q25 -31 46 -64.5t42 -68.5q66 -117 82 -250q14 -131 -13 -256q-29 -127 -98 -240q-72 -115 -174 -196z" />
<glyph unicode="*" horiz-adv-x="655" d="M72 575l231 87l-231 86l26 47l27 45l190 -158l-43 244h107l-41 -244l190 158l54 -92l-232 -86l232 -87l-27 -45l-27 -47l-190 160l41 -246h-107l43 246l-190 -160l-27 47z" />
<glyph unicode="+" horiz-adv-x="837" d="M80 299v90h297v297h90v-297h297v-90h-297v-299h-90v299h-297z" />
<glyph unicode="," horiz-adv-x="323" d="M80 57q0 25 16 47q18 23 58 23q39 0 69 -31q29 -33 29 -82q0 -35 -14.5 -64.5t-34 -54t-40 -40t-32.5 -21.5l-10 25q29 16 52.5 49t23.5 65q0 4 -4.5 10.5t-8.5 8.5q-4 0 -6 1t-6 1l-25 -2q-25 0 -47 16q-20 14 -20 49z" />
<glyph unicode="-" horiz-adv-x="489" d="M80 358v76h336v-76h-336z" />
<glyph unicode="." horiz-adv-x="276" d="M78 53q0 27 18.5 45.5t44.5 18.5q27 0 45.5 -18.5t18.5 -45.5t-18.5 -45t-45.5 -18t-45 18.5t-18 44.5z" />
<glyph unicode="/" horiz-adv-x="516" d="M51 -18l334 954h82l-334 -954h-82z" />
<glyph unicode="0" horiz-adv-x="778" d="M82 469q0 100 24.5 187t66.5 152.5t99.5 103.5t122.5 38q63 0 120.5 -38t99.5 -103.5t67 -152.5t25 -187t-25 -188t-67 -154t-99 -103.5t-121 -37.5q-66 0 -123 37.5t-99 103.5t-66.5 154t-24.5 188zM193 467q0 -88 15 -166t43 -135t64.5 -91t79.5 -34q41 0 78 34 t64.5 91t43 135t15.5 166t-15.5 166t-43 135t-64.5 91t-78 34q-43 0 -79.5 -34t-64.5 -91t-43 -135t-15 -166z" />
<glyph unicode="1" horiz-adv-x="434" d="M55 788v13l213 145l45 -2v-868q0 -35 15.5 -44t23.5 -9h35v-23h-178v801q0 14 -10 28q-12 12 -29 7z" />
<glyph unicode="2" horiz-adv-x="718" d="M82 0v45l299 328q6 6 28.5 34.5t47 69.5t44 92.5t19.5 104.5q0 33 -9 65.5t-30.5 59t-56.5 44t-86 17.5q-49 0 -89 -13t-68.5 -31.5t-48 -36t-28.5 -25.5l-8 10q4 8 26.5 39t59.5 63.5t86 58t107 25.5q57 0 104 -22.5t81 -58t51.5 -78.5t17.5 -84q0 -61 -23.5 -119 t-52.5 -104t-56.5 -77.5t-35.5 -39.5l-242 -277l385 2q23 0 39 15.5t23 25.5l8 -6l-39 -127h-553z" />
<glyph unicode="3" horiz-adv-x="700" d="M61 78q-4 14 3.5 28.5t17.5 22.5q8 6 27 10q20 0 26 -4q10 -6 20.5 -19.5t28 -28.5t49 -26.5t84.5 -11.5q10 0 44 7t71 28.5t66.5 62.5t31.5 109q0 59 -19 97t-51 59.5t-69 30t-70.5 10.5t-58 1t-31.5 1l2 47q12 0 55.5 9t90.5 32.5t85 65.5t38 112q0 8 -6.5 32.5 t-25.5 51t-56 46t-97 19.5q-41 0 -74.5 -12t-61 -28.5t-47 -36t-28.5 -31.5l-12 2q6 16 25.5 48t54.5 62.5t87 53t128 22.5q43 0 81 -16t67.5 -45t46 -67t16.5 -81q0 -53 -21.5 -91t-50 -63.5t-56.5 -40t-38 -18.5q29 -6 67 -24.5t68.5 -54t48 -88t5.5 -125.5 q-12 -80 -59.5 -130.5t-104 -77t-112.5 -35.5t-87 -7q-23 2 -54.5 8t-61 17.5t-53 27.5t-30.5 39z" />
<glyph unicode="4" horiz-adv-x="792" d="M82 227v90l432 629h86v-635h145v-55l-145 -29v-227h-96v227h-422zM150 311h354v518z" />
<glyph unicode="5" horiz-adv-x="700" d="M63 70q-2 33 23 51q23 16 51 10q12 -4 21.5 -16.5t25 -27.5t43 -26.5t76.5 -11.5q61 0 103.5 21.5t69 55.5t38.5 76t12 85q0 63 -31.5 114.5t-87 82t-133 36.5t-170.5 -20l-12 8l101 428h370q27 0 35 20l12 -4l-24 -96q-2 -4 -6 -8q-6 -6 -19 -6h-319l-56 -240q10 2 48 7 t100 -3q57 -6 110.5 -29.5t92 -61.5t62.5 -90t24 -116q0 -104 -43 -167.5t-101.5 -98.5t-119 -46t-97.5 -11q-20 0 -53 4t-63.5 14t-55 25.5t-27.5 40.5z" />
<glyph unicode="6" horiz-adv-x="761" d="M80 416q0 27 4 75t19.5 103t44 111.5t75.5 103.5q61 61 126 92t123 43t106.5 11t78.5 -7l-2 -24q-35 4 -101.5 -3.5t-137 -47t-132 -123.5t-85.5 -234q-25 -147 -2.5 -239.5t61.5 -143.5t80 -69.5t53 -20.5q59 -4 97 22.5t59.5 65.5t29 81t7.5 67q0 12 -6.5 53t-26 86 t-59 78.5t-107.5 31.5q-25 -2 -48.5 -5t-41.5 -7q-23 -6 -39 -10v31q33 23 84 41t96 16q74 -2 123 -34t78 -76t41 -95t12 -90q0 -94 -30.5 -154.5t-76.5 -96.5t-98.5 -49t-95.5 -13q-16 0 -45 4t-62.5 17t-69.5 41t-65.5 76t-48 119.5t-18.5 172.5z" />
<glyph unicode="7" horiz-adv-x="708" d="M53 813l39 127h541v-53l-289 -887h-94l285 850h-385q-35 0 -55.5 -14.5t-28.5 -30.5z" />
<glyph unicode="8" horiz-adv-x="737" d="M80 221q0 63 27.5 109.5t62.5 77t67.5 47t43.5 22.5q-8 6 -38 25.5t-61.5 52.5t-57.5 77t-26 97q0 31 13.5 69t46 71.5t85 57t132.5 23.5q72 0 121 -21.5t79.5 -53t44 -68.5t13.5 -68q0 -53 -26.5 -91t-57.5 -62q-37 -29 -84 -47l-31 16q53 39 79 82t26 113 q0 39 -19.5 66.5t-46.5 45t-56.5 24.5t-49.5 7q-18 0 -47 -6t-56.5 -22.5t-48 -45t-20.5 -74.5q0 -45 25.5 -82.5t58 -65.5t62.5 -44t36 -18q78 -31 141 -76q53 -39 98.5 -98.5t45.5 -137.5q0 -72 -29 -118t-72 -72.5t-93 -36.5t-95 -10q-78 0 -133.5 22.5t-91 57t-52 76.5 t-16.5 79zM178 227q0 -55 22.5 -90t53.5 -56.5t63.5 -29.5t53.5 -8q94 0 144 46t50 110q0 90 -73 149q-74 57 -150 98q-8 -4 -34.5 -18t-55.5 -42t-51.5 -67t-22.5 -92z" />
<glyph unicode="9" horiz-adv-x="763" d="M80 643q0 94 30.5 154.5t76.5 96.5t98.5 49t95.5 13q14 0 44 -4t63.5 -17t69.5 -41t65.5 -76t48 -118.5t18.5 -173.5q0 -29 -4 -76t-19.5 -102t-44 -111.5t-77.5 -103.5q-61 -61 -125 -92t-122 -43t-106.5 -11t-78.5 7l2 24q23 -4 60.5 -2t82.5 13.5t93 38t91 72.5 t77 116t50 170q25 147 3.5 239.5t-60.5 143.5t-80 69.5t-53 20.5q-59 4 -97 -22.5t-59.5 -65.5t-29 -81t-7.5 -66q0 -12 6.5 -53.5t26 -86.5t59 -78.5t107.5 -31.5q51 4 88 12q23 4 41 10v-30q-33 -23 -84 -40.5t-96 -17.5q-74 2 -123 34t-78 76t-41 94t-12 91z" />
<glyph unicode=":" horiz-adv-x="278" d="M80 53q0 27 17 45.5t44 18.5t45.5 -18.5t18.5 -45.5t-18.5 -45t-45.5 -18t-44 18.5t-17 44.5zM80 584q0 27 17.5 45t43.5 18q27 0 45.5 -18.5t18.5 -44.5q0 -27 -18.5 -45.5t-45.5 -18.5t-44 18.5t-17 45.5z" />
<glyph unicode=";" horiz-adv-x="323" d="M80 57q0 20 16 47q18 23 58 23q38 0 69 -31t31 -82q0 -35 -14.5 -64.5t-34 -54t-40 -40t-32.5 -21.5l-12 25q29 16 52.5 49t23.5 65q0 4 -4.5 10.5t-8.5 8.5q-4 0 -6 1t-4 1l-27 -2q-25 0 -47 16q-20 14 -20 49zM84 584q0 27 18.5 45t44.5 18q27 0 45.5 -18.5t18.5 -44.5 q0 -27 -18.5 -45.5t-45.5 -18.5t-45 18.5t-18 45.5z" />
<glyph unicode="&#x3c;" horiz-adv-x="843" d="M78 301v82l694 313l-2 -90l-584 -264l584 -266l2 -88z" />
<glyph unicode="=" horiz-adv-x="835" d="M78 162v90h684v-90h-684zM78 434v88h684v-88h-684z" />
<glyph unicode="&#x3e;" horiz-adv-x="845" d="M80 -12l2 88l584 266l-584 264l-2 90l694 -313v-82z" />
<glyph unicode="?" horiz-adv-x="624" d="M78 745q0 66 59 132q57 61 176 61q100 0 170 -57q68 -59 68 -160q0 -84 -100 -213q-29 -35 -50.5 -79t-37 -87t-23.5 -82t-8 -65h-37q0 100 23.5 196t74.5 193q6 12 12.5 29.5t10.5 37t7 37t3 27.5q0 72 -37 127t-115 55q-53 0 -88 -29q-37 -31 -36 -55q0 -16 26 -45 q27 -29 27 -57q0 -25 -17 -39q-16 -16 -39 -17q-25 0 -47 23q-23 27 -22 67zM252 53q0 27 18 45.5t45 18.5t44.5 -18.5t17.5 -45.5t-17.5 -45t-44.5 -18t-45 18.5t-18 44.5z" />
<glyph unicode="@" horiz-adv-x="894" d="M76 317q-2 70 24 140q27 72 90 135q47 47 119 80q70 27 142 30q74 2 143 -18q35 -10 65.5 -27.5t59.5 -44.5q49 -45 72 -94q27 -51 26 -117q0 -59 -18 -108t-49 -86q-16 -18 -32 -33.5t-34 -26.5q-35 -23 -70 -26q-35 -4 -61 12q-14 10 -29.5 31.5t-9.5 44.5 q10 29 18.5 62.5t14.5 52.5q4 20 8 37.5t4 35.5q0 47 -14 64q-16 23 -41 22q-23 0 -51 -16q-27 -16 -50 -45q-27 -35 -41 -70q-14 -37 -14 -86t19 -69q16 -23 45 -23q31 0 77 31l-10 -25q-14 -16 -38.5 -36.5t-59.5 -20.5q-29 0 -49 12q-25 14 -35 33q-8 10 -13 21.5 t-10 23.5q-6 25 -6 51q0 51 19 94q20 49 45 86q33 43 71 64q37 23 91 22q33 0 57 -18q27 -20 33 -51l51 49h31l-76 -283q-16 -47 12 -57q25 -10 60 12q35 23 69 80q31 55 31 144q0 57 -25 106q-29 47 -69 80q-39 29 -95 49q-29 8 -56.5 12t-55.5 2q-57 -4 -111 -26 q-59 -23 -100 -68q-57 -61 -80 -133q-10 -37 -12 -73t2 -70q12 -70 49 -131q20 -29 45 -54.5t53 -44.5q31 -18 65 -31.5t72 -15.5q63 -4 113.5 5.5t85.5 22.5t55.5 26.5t24.5 19.5l16 -8q-14 -23 -45 -43q-29 -18 -55 -31q-39 -18 -80 -29q-39 -8 -86 -8q-80 0 -156 29 q-35 16 -66.5 34.5t-57.5 43.5q-49 47 -82 114q-33 68 -35 133z" />
<glyph unicode="A" horiz-adv-x="1032" d="M57 0v12q20 4 27 11q16 12 22 18q8 10 15 27q0 2 3 8t14.5 31.5t33 79t62 150.5t102 244.5t149.5 362.5h76l369 -885q14 -39 59 -47v-12h-250v12q31 0 47 13q14 12 0 47l-290 727l-170 -424q41 12 84 12q19 0 39 -2q53 -6 115.5 -38t117.5 -111h-31q-33 43 -90 63 q-54 19 -111 19h-6q-60 -1 -109.5 -24.5t-68.5 -68.5l-57 -137q-16 -39 -10 -55q6 -20 51 -21v-12h-193z" />
<glyph unicode="B" horiz-adv-x="819" d="M57 0v12q12 0 20.5 1t16.5 1q14 0 23 9q8 6 12 18q2 8 3 17.5t1 21.5v854h248q14 0 68.5 -3t111.5 -25.5t103.5 -72t46.5 -139.5q0 -45 -20.5 -80.5t-49.5 -62.5t-60.5 -42t-52.5 -20q10 -2 47 -9t76 -30.5t70 -65.5t31 -116q0 -88 -43 -140t-99.5 -81t-114 -38t-85.5 -9 h-353zM250 63h112q18 0 62.5 6.5t88.5 28t78 60.5t34 106q0 68 -33 107t-80 58.5t-99.5 24.5t-93.5 5v53q39 0 87.5 11.5t90.5 35t70.5 57t28.5 78.5q0 70 -36 105t-79 51q-51 18 -114 18h-117v-805z" />
<glyph unicode="C" horiz-adv-x="907" d="M76 465q0 139 46 233.5t116.5 150.5t151.5 79.5t153 23.5q41 0 80 -6t70.5 -14t55 -14.5t35.5 -6.5q25 0 35 25h15v-209l-9 -2q-27 43 -63 80q-33 29 -83 54.5t-120 25.5q-113 0 -182.5 -46t-108.5 -113t-52 -138.5t-13 -120.5q0 -104 28.5 -183t77.5 -130.5t116 -77 t142 -25.5q55 0 97.5 12.5t76 30t60 37t49.5 31.5l6 -23q-20 -18 -50 -45.5t-70 -52.5t-88 -42t-105 -17q-61 0 -142.5 19t-153 72.5t-121.5 147.5t-50 244z" />
<glyph unicode="D" horiz-adv-x="964" d="M55 0v12q10 0 18.5 1t16.5 1q12 0 21 9q6 6 10 20q2 10 2 37v854h252q147 0 245.5 -40t158 -106.5t85 -150.5t25.5 -172q0 -106 -29 -183t-76 -128.5t-105 -82t-116.5 -46t-111 -20.5t-86.5 -5h-310zM240 63h82q27 0 70.5 3.5t94 15.5t100.5 37.5t90 71t65.5 113 t25.5 165.5q0 193 -113.5 296t-316.5 103h-98v-805z" />
<glyph unicode="E" horiz-adv-x="776" d="M66 0v12q41 0 53 13q10 10 10 55v854h551l2 -141h-18q-8 51 -33 63t-74 12h-309v-348h246h19t19 2q10 0 27 8q8 6 16 21q2 8 4.5 17.5t4.5 21.5h16v-209h-16q-2 12 -4 21.5t-5 17.5q-8 14 -16 20q-16 8 -27 11q-8 0 -18 1t-20 1h-246v-361q0 -12 6 -18q12 -8 18 -8 q6 -2 14.5 -1t14.5 1h242q47 2 79.5 10t55.5 37q18 20 29 51h22l-35 -164h-628z" />
<glyph unicode="F" horiz-adv-x="733" d="M61 0v12q10 0 19.5 1t15.5 1q16 4 21 11q8 8 8 18q2 10 2 37v854h545l2 -141h-21q-4 27 -12 41q-6 14 -20 22q-16 8 -31 10q-8 0 -18.5 1t-24.5 1h-301v-348h229q29 0 39 2q14 0 27 8q10 6 18 21q4 12 8 39h19v-209h-19q-4 47 -24 59q-18 12 -68 13h-229v-373 q0 -10 1 -19.5t1 -17.5q2 -10 10 -18q4 -6 21 -11q6 0 15 -1t21 -1v-12h-254z" />
<glyph unicode="G" horiz-adv-x="962" d="M76 471q0 139 49 231.5t120.5 147.5t151.5 78.5t140 23.5q35 0 80 -6t85.5 -14t71.5 -15.5t37 -9.5q10 -2 18.5 5.5t12.5 19.5h16v-195l-10 -4q-23 39 -53.5 66.5t-65.5 46.5q-66 39 -156 39q-106 0 -177.5 -39t-114.5 -100.5t-61.5 -138.5t-18.5 -150q0 -96 24.5 -164 t62.5 -114t83 -71.5t87 -39t74.5 -16.5t47.5 -3q49 0 84.5 12.5t59.5 28.5t37 31.5t15 19.5v295q0 25 -8 35q-12 12 -23 14q-16 4 -30 4q-8 -2 -16.5 -2h-18.5v21h211v-391q-14 -12 -41 -34t-70 -44.5t-104.5 -38.5t-145.5 -16q-20 0 -62 6t-92 23.5t-103.5 50t-97.5 87 t-71.5 133t-27.5 187.5z" />
<glyph unicode="H" horiz-adv-x="925" d="M59 0v12q10 0 19.5 1t15.5 1q14 2 23 11q4 4 8 18q4 20 4 37v854h117v-422h450v422h119v-854q0 -27 2 -37q0 -12 10 -18q4 -6 21 -11q6 0 15 -1t20 -1v-12h-187v442h-450v-442h-187z" />
<glyph unicode="I" horiz-adv-x="323" d="M82 0v934h119v-854q0 -12 1 -21.5t3 -17.5q4 -14 10 -18q12 -8 23 -9q8 0 17 -1t21 -1v-12h-194z" />
<glyph unicode="J" horiz-adv-x="516" d="M55 45v9q0 17 5 27q8 13 18 19t21.5 5t19.5 -7t15 -20.5t15.5 -28.5t19.5 -25.5t26 -11.5q23 0 39 14.5t26 39t14.5 55.5t4.5 63v750h186v-14q-27 0 -35 -2q-10 0 -22 -9q-6 -6 -11 -20q0 -6 -1 -15.5t-1 -21.5v-590q0 -125 -55 -199.5t-168 -74.5q-57 0 -86 19.5 t-31 37.5z" />
<glyph unicode="K" horiz-adv-x="956" d="M66 0v12q10 0 19 1t15 1q16 4 21 11q6 4 10 18q2 10 2 37v854h119v-432l428 432h149v-14q-16 -2 -29.5 -4.5t-21.5 -6.5q-18 -6 -43 -30l-385 -387l457 -431q23 -23 41 -32q18 -12 49 -17v-12h-166l-479 440v-440h-186z" />
<glyph unicode="L" horiz-adv-x="765" d="M55 0v12q10 0 19.5 1t15.5 1q16 4 21 11q8 8 10 18q0 8 1 17.5t1 19.5v854h117v-832q0 -25 19.5 -30.5t47.5 -5.5h201q41 0 69.5 4t50 15t39 31.5t33.5 53.5l17 -4l-39 -166h-623z" />
<glyph unicode="M" horiz-adv-x="1187" d="M51 0v14q29 0 45 6t23 19q6 12 6 31q2 10 2 21v26v817h139l336 -764l326 764h145v-852q0 -12 1 -21.5t1 -15.5q4 -16 10 -20q8 -8 19 -9q10 -2 37 -2v-14h-185v827l-354 -827h-47l-352 809v-692v-117h-152z" />
<glyph unicode="N" horiz-adv-x="940" d="M51 0v12q29 0 45 6t23 17q6 12 6 31q2 10 2 21v26v821h106q20 -33 61.5 -91.5t92.5 -132t105.5 -153.5t105.5 -153.5t92 -132t62 -91.5v754h116v-934h-112l-553 784v-784h-152z" />
<glyph unicode="O" horiz-adv-x="1028" d="M76 467q0 100 34.5 188t94 155t139.5 104.5t170 37.5q92 0 172 -37.5t139.5 -104.5t94 -155t34.5 -188t-34.5 -188.5t-94 -155t-139.5 -104t-172 -37.5q-90 0 -170 37.5t-139.5 104t-94 155t-34.5 188.5zM201 467q0 -88 24.5 -165t66.5 -133t99.5 -89t122.5 -33 q63 0 120.5 33t100.5 89t67.5 133t24.5 165q0 86 -24.5 163t-67.5 134t-100.5 90t-120.5 33q-66 0 -123 -33t-99 -90t-66.5 -134t-24.5 -163z" />
<glyph unicode="P" horiz-adv-x="761" d="M51 0v12q10 0 18.5 1t16.5 1q14 4 18 11q6 4 11 20q0 6 1 15.5t1 19.5v854h245q147 0 236.5 -69.5t89.5 -190.5q0 -78 -28.5 -130t-76.5 -83t-109.5 -44.5t-127.5 -13.5l-113 5v-328v-80h-182zM233 475q29 0 51.5 -1t63.5 -1q94 0 156.5 47t62.5 156q0 57 -22.5 94 t-56 58.5t-74.5 30.5t-78 9h-103v-393z" />
<glyph unicode="Q" horiz-adv-x="1026" d="M76 471q0 100 34.5 188.5t94 155t139.5 104t172 37.5q90 0 170 -37.5t139.5 -104t94 -155t34.5 -188.5q0 -127 -53 -232t-141 -171q18 -43 37.5 -85t41 -77t47 -57.5t58.5 -24.5v-17h-16q-34 0 -68 7q-35 8 -72.5 27.5t-60.5 62.5q-12 20 -25.5 50t-29.5 62 q-72 -30 -151 -30h-5q-92 0 -172 37.5t-139.5 104.5t-94 155t-34.5 188zM201 471q0 -88 24.5 -165t67.5 -134t99 -90t122 -33q61 0 123 33q-16 29 -33.5 52.5t-36.5 39.5q-20 18 -49 32.5t-59.5 25t-60 15.5t-50.5 5q68 20 135 20q55 0 117 -20.5t105 -81.5q4 -8 12 -20 q51 57 80.5 140t29.5 181q0 86 -24.5 163t-66.5 134t-99 90t-123 33t-122 -33t-99 -90t-67.5 -134t-24.5 -163z" />
<glyph unicode="R" horiz-adv-x="866" d="M53 0v14q27 0 45.5 8.5t18.5 59.5v854h266q45 0 98.5 -9t100.5 -36t78.5 -76t31.5 -127q0 -70 -34.5 -114t-78.5 -69.5t-84 -35.5t-53 -10q33 -12 65 -31.5t62 -58.5q39 -49 61.5 -96.5t40 -89.5t36 -77.5t49.5 -62.5q29 -25 59 -25v-18q-24 -4 -47.5 -4t-46.5 4 q-39 8 -81 35.5t-71 93.5q-20 45 -41.5 90t-45 85t-47 71t-48.5 45q-47 29 -88 29v43q43 0 91 12t88 37.5t66.5 65.5t26.5 95q0 57 -24.5 91t-60 50.5t-74.5 21.5t-70 5h-106v-870h-183z" />
<glyph unicode="S" horiz-adv-x="708" d="M76 4v207h14q6 -16 23.5 -43t48.5 -53.5t76 -46t106 -19.5q51 0 84 19.5t53.5 47t28.5 56.5t8 45q0 49 -28.5 90t-66.5 70t-74 48t-50 26q-14 8 -50 28.5t-74 55t-66.5 82t-28.5 108.5q0 72 32.5 117t76.5 70.5t88.5 34.5t68.5 9q31 0 64.5 -6t63.5 -14t50 -16l19 -7 q18 -4 27.5 6.5t11.5 20.5h14v-209h-14q-14 49 -47 80t-68 48.5t-66.5 23.5t-44.5 6q-10 0 -38.5 -5t-57.5 -20.5t-51.5 -44t-22.5 -78.5q0 -41 32 -77.5t72 -66.5t75.5 -49.5t46.5 -25.5q61 -31 112 -73q41 -37 77 -90.5t36 -122.5q0 -76 -34 -125.5t-81 -77t-97 -37.5 t-83 -10q-66 0 -119 15t-100 28q-14 4 -21.5 -7.5t-7.5 -17.5h-18z" />
<glyph unicode="T" horiz-adv-x="874" d="M72 770l6 166h727l4 -166h-14q-12 55 -35 76q-27 20 -80 20h-180v-784q0 -20 4 -37q0 -14 10 -20q12 -8 23 -9q10 -2 38 -2v-14h-192v866h-182q-53 0 -80 -22q-25 -18 -37 -74h-12z" />
<glyph unicode="U" horiz-adv-x="894" d="M51 924v14h187v-608q0 -141 66.5 -208t182.5 -67q72 0 121 22.5t79 58.5t43 82t13 95v625h76v-608q0 -59 -14 -119.5t-53 -111t-106.5 -82t-174.5 -31.5q-70 0 -133.5 19.5t-111.5 60t-76.5 107.5t-28.5 161v522q0 31 -6 49q-10 18 -43 19h-21z" />
<glyph unicode="V" horiz-adv-x="985" d="M47 930v14h170l305 -770l295 770h117v-14q-27 -1 -41 -17q-12 -16 -23 -39l-338 -874h-57l-356 870q-8 25 -27 43q-16 16 -45 17z" />
<glyph unicode="W" horiz-adv-x="1376" d="M53 930v14h164l242 -747l239 747h23l248 -754l243 754h115v-14q-31 -5 -41 -15q-10 -8 -20 -36q-78 -223 -148.5 -441.5t-136.5 -437.5h-59l-230 705l-227 -705h-62l-276 858q-10 27 -25 49q-16 23 -49 23z" />
<glyph unicode="X" horiz-adv-x="1007" d="M53 0v14q33 2 51 19q8 6 17.5 16t19.5 23l303 401l-268 389q-18 27 -41 43q-20 16 -57 17v14h184l256 -367l279 367h137v-14q-39 0 -62 -17q-18 -10 -45 -47l-264 -352l299 -428q20 -31 37 -43q16 -14 53 -21v-14h-182l-281 408l-307 -408h-129z" />
<glyph unicode="Y" horiz-adv-x="974" d="M49 922v14h174l293 -449l285 449h131v-14q-57 -7 -84 -56l-293 -450v-334q0 -29 2 -39t14 -18t25 -9q10 -2 39 -2v-14h-199v412l-305 450q-20 31 -33 43q-16 16 -49 17z" />
<glyph unicode="Z" horiz-adv-x="856" d="M76 0v49l565 821h-399q-57 0 -86 -22q-29 -18 -37 -80h-21l17 168h665v-49l-557 -819h441q53 0 81 24q29 31 39 78h19l-19 -170h-708z" />
<glyph unicode="[" horiz-adv-x="350" d="M80 -223v1190h223v-27h-82q-25 0 -36 -14.5t-11 -30.5v-1047q0 -16 11.5 -30.5t35.5 -14.5h82v-26h-223z" />
<glyph unicode="\" horiz-adv-x="524" d="M53 936h88l336 -954h-90z" />
<glyph unicode="]" horiz-adv-x="356" d="M55 -197h82q25 0 36 14.5t11 30.5v1047q0 16 -11 30.5t-36 14.5h-82v27h224v-1190h-224v26z" />
<glyph unicode="^" horiz-adv-x="724" />
<glyph unicode="_" horiz-adv-x="833" d="M80 -100h680v-70h-680v70z" />
<glyph unicode="`" horiz-adv-x="442" d="M88 1004h119l139 -213h-65z" />
<glyph unicode="a" horiz-adv-x="677" d="M68 158q0 53 26.5 92t68.5 66.5t90 45t92 27.5t76 17.5t40 11.5v67q0 33 -15.5 58.5t-40 43t-55.5 26t-61 8.5q-37 0 -70 -9.5t-57.5 -21.5t-41 -23.5t-18.5 -13.5l-16 12q2 4 20.5 21.5t49 36t75.5 34t103 15.5q115 0 168 -51q55 -53 55 -160v-338q0 -53 8 -69.5 t19 -16.5q4 0 18 5t19 9l-3 -20q-33 -18 -63 -33q-31 -10 -49 -4q-20 10 -29 33q-12 25 -12 73l-4 107v158q-80 -14 -144 -37q-27 -10 -53 -24.5t-46.5 -32t-33 -40t-12.5 -49.5q0 -47 18.5 -71.5t43 -36t48 -11.5h33.5q37 4 59.5 19.5t39.5 26.5l-2 -39q-6 -12 -23.5 -25.5 t-39 -26t-47.5 -21.5t-50 -11q-10 0 -40 4t-62.5 21.5t-57 52t-24.5 94.5z" />
<glyph unicode="b" horiz-adv-x="782" d="M86 35v10h20.5t16.5 4q14 2 14 31v833q0 14 -16 19h-19q-8 0 -16 2v14q2 0 22.5 5t46 11.5t49 11.5t34.5 7v-418q68 109 192 109q78 0 131 -32t85 -81t46.5 -107.5t14.5 -113.5q0 -92 -26 -158.5t-67 -110.5t-93 -64.5t-103 -20.5q-43 0 -95 24.5t-85 71.5v-88zM240 258 q0 -98 52 -159.5t130 -61.5q33 0 65.5 17.5t58 52t42 86t16.5 116.5q0 55 -12 107.5t-34.5 93.5t-57.5 66.5t-78 25.5q-80 0 -131 -47t-51 -133v-164z" />
<glyph unicode="c" horiz-adv-x="655" d="M78 322q0 100 33.5 162.5t58.5 88.5q33 37 71 57.5t71.5 30t61.5 11.5q14 1 26 1t22 -1q76 -4 109.5 -33t43.5 -49q4 -10 6.5 -31.5t-26.5 -30.5q-14 -4 -23.5 1.5t-13.5 11.5q-2 2 -7 15t-17.5 26.5t-35 24.5t-59.5 11q-82 0 -128 -37.5t-67.5 -83.5t-24.5 -90.5 t-3 -56.5q0 -84 25.5 -140t62.5 -90t77 -48q35 -13 60 -13h7q37 2 68.5 14.5t57 27t41 27.5t17.5 19l10 -24q-39 -70 -101 -103.5t-128 -33.5q-37 0 -88.5 14t-97.5 51t-77.5 102.5t-31.5 168.5z" />
<glyph unicode="d" horiz-adv-x="745" d="M82 319q0 66 17.5 129.5t53 113.5t90 81t128.5 31q115 0 180 -96v311v24q-4 16 -16 19h-21q-8 0 -14 2v14q2 0 22.5 5t45 11.5t48 11.5t33.5 7v-903q0 -27 17 -31q8 -4 36 -4v-10l-151 -41v100q-71 -108 -191 -108h-2q-49 0 -99 18.5t-89 58t-63.5 103t-24.5 153.5z M184 352q0 -74 17.5 -129t43 -92t58.5 -55.5t64 -18.5q80 0 131 48.5t51 132.5v163q0 35 -10.5 74t-33 72t-56 54.5t-82.5 21.5q-78 0 -130.5 -75t-52.5 -196z" />
<glyph unicode="e" horiz-adv-x="673" d="M80 315q0 35 4 67t12 64q10 33 23.5 61t30.5 54q37 47 90 80t129 33q59 0 102 -18.5t71.5 -46t43 -60.5t14.5 -64q0 -94 -61.5 -142t-149.5 -48q-37 0 -63.5 6t-42.5 16q-20 8 -33 23v33q28 -15 70 -23q19 -3 38 -4q23 0 45 5q41 9 72 41t31 95q0 25 -9.5 51.5t-28.5 47 t-48 32.5q-22 9 -47 8q-9 0 -19 -1q-74 -10 -125 -92t-51 -205q0 -76 23.5 -126t58.5 -81t73 -43t66 -12q72 0 123 29.5t80 58.5l10 -15q-6 -16 -24.5 -41.5t-48 -50t-71.5 -43t-95 -18.5q-29 0 -78 11t-96 47t-83 100.5t-36 170.5z" />
<glyph unicode="f" horiz-adv-x="468" d="M47 614v23l129 20v72q0 102 34 158.5t85 83.5q39 20 80 20t51 -2q61 -10 76 -31q7 -10 7 -22q0 -11 -7 -23q-4 -6 -25 -19t-39 5t-31.5 47t-39.5 29q-47 0 -70 -48t-23 -122v-148h144v-20l-144 -23v-548v-66h-165v12h32q12 4 21 8q6 4 10 17q4 16 4 33v544h-129z" />
<glyph unicode="g" horiz-adv-x="692" d="M39 -119q10 33 29 51q31 31 58.5 37t49.5 2q25 -6 45 -22q-29 0 -56.5 -15.5t-31.5 -44.5t12.5 -49t44 -33.5t63.5 -19.5t71 -8q9 -1 18 -1q28 0 60 5q44 6 83 20.5t67 38t32 58.5q4 33 -24 51t-74 27.5t-104 12.5t-114 7q-111 10 -146 43q-30 30 -30 66v8q2 23 18.5 43 t34.5 37q23 20 50 38h2q-53 31 -86 84.5t-33 118.5q0 49 19.5 92t53 76t78.5 51.5t97 18.5q41 0 77.5 -12.5t67.5 -34.5l162 32l8 -12l-115 -74l-2 2q47 -59 47 -139q0 -49 -19.5 -92t-53 -75.5t-77.5 -51t-95 -18.5q-43 0 -80 12q-25 -10 -50.5 -31.5t-23.5 -48.5 q0 -16 16.5 -25.5t43 -13.5t62.5 -7t75 -5t84 -7t85 -19.5t68.5 -43.5t34.5 -80q1 -8 1 -16q0 -42 -26 -79q-32 -44 -90.5 -74.5t-138.5 -44.5q-42 -7 -87 -7q-40 0 -81 6q-82 10 -123 39t-54 62q-7 18 -7 36q0 15 4 29zM180 436q0 -78 43 -131t105 -53q61 0 104 53t43 131 t-43 132.5t-104 54.5t-104.5 -54.5t-43.5 -132.5z" />
<glyph unicode="h" horiz-adv-x="704" d="M53 934v14q6 2 14.5 3t20.5 5t24.5 6.5t26.5 6.5q12 4 28.5 7t37.5 7v-434q6 8 20.5 27.5t39 39t58 36t76.5 20.5q10 1 20 1q39 -1 71 -13q40 -16 66 -47t39 -75t13 -96v-376q0 -21 8 -37t31 -17v-12h-139v430q0 33 -5 62.5t-20.5 53t-44 38t-73.5 14.5q-43 0 -73 -20.5 t-48.5 -48t-27.5 -58.5t-11 -51v-420h-101v913q0 14 -16 19h-18q-8 0 -17 2z" />
<glyph unicode="i" horiz-adv-x="309" d="M53 614v7l135 47l27 -2v-629q0 -10 6 -17q4 -2 7 -4t8 -2q6 -2 26 -2v-12h-147v339v177t-1 69.5t-1 14.5q-2 2 -3 4t-4 4q-2 2 -4 2q-10 2 -18 0h-13.5t-17.5 4zM100 842q0 16 9.5 32.5t19.5 30t19.5 23.5t9.5 14q0 -4 9 -14t20.5 -23.5t20.5 -30t9 -32.5q0 -18 -9 -30.5 t-20.5 -19t-20.5 -9.5t-9 -5q0 2 -9.5 5t-19.5 9.5t-19.5 18.5t-9.5 31z" />
<glyph unicode="j" horiz-adv-x="288" d="M-78 -233q2 2 6 8t12.5 11t17.5 7t19 -6t23.5 -31.5t42.5 -27.5h3q27 0 48 34q23 35 23 107v49v385v201.5t-1 78t-1 15.5q-2 8 -11 12q-8 2 -20 0q-6 -2 -12 -2t-17 -2v15l135 47l27 -2v-697q0 -84 -22 -139q-23 -61 -72 -98q-42 -32 -103 -32q-10 0 -20 1q-45 4 -70 23 q-14 12 -14 25q0 9 6 18zM100 842q0 16 9.5 32.5t20.5 30t20.5 23.5t9.5 14q0 -4 9 -14t19.5 -23.5t19.5 -30t9 -32.5q0 -18 -9 -30.5t-19.5 -19t-19.5 -9.5t-9 -5q0 2 -9.5 5t-20.5 9.5t-20.5 18.5t-9.5 31z" />
<glyph unicode="k" horiz-adv-x="727" d="M53 0v12q41 0 49 8q12 8 13 50v843q0 14 -17 19h-20q-8 0 -15 2v14q2 0 22.5 5t46.5 11.5t49.5 11.5t33.5 7v-606l268 280h152v-10q-39 0 -66 -14q-25 -12 -53 -41l-211 -230l281 -292q16 -18 43 -39q25 -18 53 -19v-12h-160l-307 334v-334h-162z" />
<glyph unicode="l" horiz-adv-x="327" d="M66 932v14q2 0 22.5 5t46 11.5t49 11.5t33.5 7v-911q0 -41 12 -50q10 -10 50 -10v-10h-162v887v24q0 14 -17 19h-18q-8 0 -16 2z" />
<glyph unicode="m" horiz-adv-x="1083" d="M57 655v11h144v-121v-4q2 2 13 21.5t34.5 42t58.5 43t84 24.5q12 1 24 1q61 0 102 -35q48 -42 65 -112q0 6 4 11q2 2 2 4q18 35 45 61q23 23 58.5 44.5t86.5 25.5q10 1 20 1q37 -1 67 -13q38 -16 63.5 -47t38 -75t12.5 -96v-376q0 -23 2 -31q0 -10 6 -17q4 -2 17 -6h28 v-12h-151v430q0 33 -5.5 62.5t-19.5 53t-41 38t-70 14.5q-41 0 -68.5 -19.5t-46 -47t-27.5 -58.5t-11 -51v-422h-96v430q0 33 -5.5 62.5t-20.5 53t-42 38t-70 14.5t-72.5 -22.5t-47 -52t-25.5 -61.5t-8 -50v-412h-101v606q0 33 -10 41q-8 8 -37 8z" />
<glyph unicode="n" horiz-adv-x="692" d="M55 655v11h144v-121v-4q2 2 14 21.5t36.5 42t61.5 43t86 24.5q10 1 20 1q39 -1 71 -13q40 -16 66 -47t39 -75t13 -96v-376q0 -21 8 -37q6 -16 31 -17v-12h-139v430q0 33 -5 62.5t-20.5 53t-44 38t-74.5 14.5q-43 0 -72.5 -20.5t-48 -48t-27.5 -58.5t-11 -51v-420h-101 v606q0 31 -10 41q-8 8 -37 8z" />
<glyph unicode="o" horiz-adv-x="780" d="M80 328q0 72 24.5 135t66.5 110.5t99.5 74t122.5 26.5q66 0 123 -26.5t100 -74t68 -110.5t25 -135t-25 -134.5t-68 -109.5t-100 -73.5t-123 -26.5t-123 26.5t-99 73.5t-66.5 109.5t-24.5 134.5zM186 328q0 -59 16.5 -112.5t44 -93.5t65.5 -62.5t81 -22.5t81 22.5 t66.5 62.5t45 93t16.5 113q0 61 -16.5 113.5t-45 92t-66.5 62t-81 22.5t-81 -22.5t-65.5 -62t-44 -92t-16.5 -113.5z" />
<glyph unicode="p" horiz-adv-x="745" d="M55 612v13l119 41h27v-119q10 14 28.5 35.5t45 41t62.5 34t79 14.5q70 0 119 -29t78.5 -78t43 -113.5t13.5 -136.5q0 -94 -33 -157.5t-78 -102.5t-92 -55t-76 -16q-84 0 -127 32.5t-59 59.5v-301q0 -12 1 -20.5t3 -14.5q4 -14 12 -16q6 -6 21 -7q6 -2 14 -2h18v-10h-168 v70v342v231t-1 142.5t-1 75t-1 29.5t-1 7q-4 10 -8 12q-4 0 -7 1t-9 -1t-23 -2zM205 223q0 -72 46 -128t136 -56q29 0 60.5 14.5t58 47t44 84t17.5 124.5q0 51 -11 102.5t-32.5 92.5t-56.5 65.5t-80 24.5q-25 0 -56.5 -9.5t-59 -32t-47 -59t-19.5 -90.5v-180z" />
<glyph unicode="q" horiz-adv-x="743" d="M80 340q0 51 19.5 108.5t56.5 106.5t88 82t114 33q80 0 125 -32t62 -58l4 -7v93h26l119 -41v-13q-16 0 -22 2t-9.5 1t-7.5 -1q-4 -2 -8 -12q-4 -12 -4 -31v-796q0 -12 1 -20.5t3 -14.5q4 -14 12 -16q6 -6 21 -7q10 -2 33 -2v-10h-168v70v327q-10 -14 -29.5 -34.5 t-47.5 -39t-61.5 -31.5t-72.5 -13q-123 0 -188.5 97t-65.5 259zM182 346q0 -68 15.5 -121t41 -89t58.5 -55.5t65 -19.5q88 0 135.5 56.5t47.5 134.5v180q0 74 -48 129t-135 55q-47 0 -80.5 -25.5t-55 -64.5t-33 -87t-11.5 -93z" />
<glyph unicode="r" horiz-adv-x="512" d="M59 0v12q37 0 47 11q8 8 9 47v301v157.5t-1 62.5t-1 13q-4 10 -9 10q-2 0 -8 1t-14 1h-21v11l123 39h27v-140q2 6 15.5 31t36 50.5t53 46t71.5 20.5q27 0 40 -9.5t19.5 -20.5t6.5 -21.5v-12.5q0 -23 -14.5 -39t-20.5 -20q-10 -4 -18.5 5t-17.5 23.5t-18.5 25.5t-21.5 9 q-25 -6 -48.5 -24.5t-40.5 -41t-27.5 -46t-10.5 -39.5v-463h-156z" />
<glyph unicode="s" horiz-adv-x="567" d="M80 -20v182l10 4q2 -10 13.5 -31.5t33 -43t53 -38t74.5 -16.5q66 0 102.5 31.5t36.5 78.5q0 33 -21.5 59.5t-49 47t-53 33t-35.5 16.5t-37 18.5t-54.5 38t-49 58.5t-21.5 80q0 57 24.5 93t58.5 54.5t68.5 24.5t53.5 6q18 0 40.5 -4t44 -10.5t37 -10.5t19.5 -4q8 0 14 10 q2 4 4 11h7v-154h-9q-6 14 -18 34.5t-32.5 37t-48.5 29t-66 12.5q-57 0 -86 -33t-29 -68q0 -29 22.5 -54.5t51 -44.5t56.5 -32.5t38 -19.5t37.5 -20.5t56.5 -39t50.5 -59.5t21.5 -82q0 -57 -24.5 -93t-60.5 -56.5t-74 -28.5t-63 -8q-8 0 -25.5 2t-37.5 5t-37.5 6t-25.5 3 q-18 4 -37 3t-25 -27h-8z" />
<glyph unicode="t" horiz-adv-x="501" d="M57 623v24l103 12l69 185h31v-185h117v-12l-117 -24v-449v-20.5t4 -20.5q2 -20 12 -43q8 -16 25 -33q14 -12 41 -12h7q35 1 59 19q28 20 38 26l13 -14q-2 -4 -15.5 -18.5t-35 -30t-50 -27.5t-59.5 -12q-43 0 -70 16q-29 16 -43 41q-14 23 -20 59q-6 33 -6 70v449h-103z " />
<glyph unicode="u" horiz-adv-x="696" d="M59 649v10h140v-430q0 -33 6 -62.5t21.5 -53t43 -38t72.5 -14.5q43 0 72.5 20.5t48 48.5t29 58.5t12.5 51.5v419h100l-2 -577q0 -29 10 -35q6 -2 14.5 -3t20.5 -1v-12l-125 -35l-12 4v125l-2 -6q-2 -4 -14.5 -22.5t-37 -41t-61.5 -43t-88 -24.5q-11 -1 -21 -1 q-40 0 -70 13q-38 16 -64.5 47t-39 75t-12.5 95v377q0 16 -8 37q-10 18 -33 18z" />
<glyph unicode="v" horiz-adv-x="718" d="M55 645v10h138l190 -532l190 532h95v-10q-25 -6 -33 -20q-4 -10 -8 -19.5t-9 -19.5l-219 -586h-65l-230 602q-6 18 -18 31q-10 12 -31 12z" />
<glyph unicode="w" horiz-adv-x="1083" d="M49 645v10h123l182 -536l203 536h27l178 -532l192 532h82v-10q-12 -6 -18 -12q-4 -4 -6 -9.5t-6 -11.5l-224 -612h-65l-166 471l-180 -471h-68l-217 602q-4 8 -6 14.5t-6 14.5q-10 14 -25 14z" />
<glyph unicode="x" horiz-adv-x="729" d="M55 0v12q18 0 29 8q8 6 20 23l201 301l-172 266q-10 16 -24 27q-14 10 -37 10v10h149l144 -223l149 223h111v-10q-43 -4 -64 -37l-155 -237l206 -320q4 -8 10.5 -14t14.5 -14q14 -12 37 -13v-12h-146l-182 283q-4 -4 -32.5 -48.5t-63.5 -97.5q-39 -61 -90 -137h-105z" />
<glyph unicode="y" horiz-adv-x="718" d="M53 649v10h137l201 -520l180 520h99v-10q-15 -2 -23 -8q-8 -12 -12 -20l-256 -699q-4 -8 -17.5 -44t-38 -75t-60.5 -69.5t-85 -30.5q-10 0 -26.5 2t-33 8t-27.5 15.5t-11 23.5q-2 16 9 40t30 26q23 0 35 -12.5t19 -29t12 -29.5t18 -13q20 0 44.5 43t44 96t34 97t14.5 48 l-248 607q-2 14 -14 18z" />
<glyph unicode="z" horiz-adv-x="677" d="M80 0v45l381 555h-271q-37 0 -45 -16q-12 -18 -14 -49h-12l2 122h465v-45l-383 -555h301q33 0 43 2q16 6 24 15q8 4 17 24q4 8 5 17.5t5 23.5l12 -4l-10 -135h-520z" />
<glyph unicode="{" horiz-adv-x="430" d="M53 354v33q14 2 31.5 16.5t35 34t29 40t13.5 32.5t2 42v64.5t-1 65.5t-1 45q0 84 31.5 132t71.5 71.5t75 30t41 6.5v-25q-18 0 -41 -11t-41 -30.5t-30.5 -46.5t-12.5 -57v-236q0 -41 -18.5 -73.5t-42 -58.5t-46 -41t-32.5 -17q10 -4 32.5 -19.5t46 -40t42 -58.5t18.5 -75 v-233q0 -31 12.5 -57.5t30.5 -46t40.5 -31t41.5 -11.5v-26q-6 0 -41 6t-75 30.5t-71.5 72.5t-31.5 132q0 14 1 45t1 66v64.5t-2 41.5t-13.5 32t-29 39.5t-34.5 34.5t-32 17z" />
<glyph unicode="|" horiz-adv-x="243" d="M80 -29v1000h88v-1000h-88z" />
<glyph unicode="}" horiz-adv-x="436" d="M53 -201q18 0 41 11.5t41.5 31t30.5 46t12 57.5v233q0 41 18.5 75t41 58.5t45 40t32.5 19.5q-10 2 -32.5 17t-45 41t-41 58.5t-18.5 73.5v236q0 31 -12 57.5t-30.5 46t-41 30.5t-41.5 11v25q6 0 40 -6.5t74 -30t71.5 -71.5t31.5 -132q0 -14 -1 -45t-1 -65.5t1 -64.5 t3 -42t13.5 -32.5t29 -40t35 -34t31.5 -16.5v-2v-31q-14 -2 -31.5 -17t-35 -34.5t-29 -39t-13.5 -32.5q-2 -12 -3 -41.5t-1 -64.5t1 -65.5t1 -45.5q0 -84 -31.5 -132t-71.5 -72.5t-74 -30.5t-40 -6v26z" />
<glyph unicode="~" horiz-adv-x="878" d="M59 317v15q0 90 50.5 140t115.5 50q45 0 90 -14t129 -53q49 -23 104.5 -44.5t108.5 -21.5q94 0 95 133h65v-14q0 -53 -14.5 -89t-38 -58.5t-52 -33t-59.5 -10.5q-39 0 -87 12.5t-140 53.5q-49 23 -98 45.5t-103 22.5q-102 0 -102 -134h-64z" />
<glyph unicode="&#xa1;" horiz-adv-x="317" />
<glyph unicode="&#xa2;" horiz-adv-x="782" />
<glyph unicode="&#xa3;" horiz-adv-x="782" />
<glyph unicode="&#xa4;" horiz-adv-x="995" />
<glyph unicode="&#xa5;" horiz-adv-x="782" />
<glyph unicode="&#xa6;" horiz-adv-x="323" />
<glyph unicode="&#xa7;" horiz-adv-x="782" />
<glyph unicode="&#xa8;" horiz-adv-x="442" />
<glyph unicode="&#xa9;" horiz-adv-x="997" />
<glyph unicode="&#xaa;" horiz-adv-x="516" />
<glyph unicode="&#xab;" horiz-adv-x="604" />
<glyph unicode="&#xac;" horiz-adv-x="878" />
<glyph unicode="&#xad;" horiz-adv-x="489" d="M80 358v76h336v-76h-336z" />
<glyph unicode="&#xae;" horiz-adv-x="751" />
<glyph unicode="&#xaf;" horiz-adv-x="442" />
<glyph unicode="&#xb0;" horiz-adv-x="442" />
<glyph unicode="&#xb1;" horiz-adv-x="878" />
<glyph unicode="&#xb2;" horiz-adv-x="530" />
<glyph unicode="&#xb3;" horiz-adv-x="501" />
<glyph unicode="&#xb4;" horiz-adv-x="442" />
<glyph unicode="&#xb5;" horiz-adv-x="864" />
<glyph unicode="&#xb6;" horiz-adv-x="782" />
<glyph unicode="&#xb7;" horiz-adv-x="471" d="M102 483q0 55 40 94t94 39q55 0 94 -39t39 -94t-39 -93t-94 -38q-53 0 -93.5 38t-40.5 93z" />
<glyph unicode="&#xb8;" horiz-adv-x="442" />
<glyph unicode="&#xb9;" horiz-adv-x="442" />
<glyph unicode="&#xba;" horiz-adv-x="516" />
<glyph unicode="&#xbb;" horiz-adv-x="604" />
<glyph unicode="&#xbc;" horiz-adv-x="1120" />
<glyph unicode="&#xbd;" horiz-adv-x="1120" />
<glyph unicode="&#xbe;" horiz-adv-x="1120" />
<glyph unicode="&#xbf;" horiz-adv-x="604" />
<glyph unicode="&#xc0;" horiz-adv-x="876" />
<glyph unicode="&#xc1;" horiz-adv-x="876" />
<glyph unicode="&#xc2;" horiz-adv-x="876" />
<glyph unicode="&#xc3;" horiz-adv-x="876" />
<glyph unicode="&#xc4;" horiz-adv-x="876" />
<glyph unicode="&#xc5;" horiz-adv-x="944" />
<glyph unicode="&#xc6;" horiz-adv-x="1189" />
<glyph unicode="&#xc7;" horiz-adv-x="944" />
<glyph unicode="&#xc8;" horiz-adv-x="753" />
<glyph unicode="&#xc9;" horiz-adv-x="753" />
<glyph unicode="&#xca;" horiz-adv-x="753" />
<glyph unicode="&#xcb;" horiz-adv-x="753" />
<glyph unicode="&#xcc;" horiz-adv-x="331" />
<glyph unicode="&#xcd;" horiz-adv-x="331" />
<glyph unicode="&#xce;" horiz-adv-x="331" />
<glyph unicode="&#xcf;" horiz-adv-x="331" />
<glyph unicode="&#xd0;" horiz-adv-x="1069" />
<glyph unicode="&#xd1;" horiz-adv-x="1040" />
<glyph unicode="&#xd2;" horiz-adv-x="1110" />
<glyph unicode="&#xd3;" horiz-adv-x="1110" />
<glyph unicode="&#xd4;" horiz-adv-x="1110" />
<glyph unicode="&#xd5;" horiz-adv-x="1110" />
<glyph unicode="&#xd6;" horiz-adv-x="1110" />
<glyph unicode="&#xd7;" horiz-adv-x="878" />
<glyph unicode="&#xd8;" horiz-adv-x="1110" />
<glyph unicode="&#xd9;" horiz-adv-x="1019" />
<glyph unicode="&#xda;" horiz-adv-x="1019" />
<glyph unicode="&#xdb;" horiz-adv-x="1019" />
<glyph unicode="&#xdc;" horiz-adv-x="1019" />
<glyph unicode="&#xdd;" horiz-adv-x="798" />
<glyph unicode="&#xde;" horiz-adv-x="808" />
<glyph unicode="&#xdf;" horiz-adv-x="823" />
<glyph unicode="&#xe0;" horiz-adv-x="731" />
<glyph unicode="&#xe1;" horiz-adv-x="731" />
<glyph unicode="&#xe2;" horiz-adv-x="731" />
<glyph unicode="&#xe3;" horiz-adv-x="731" />
<glyph unicode="&#xe4;" horiz-adv-x="731" />
<glyph unicode="&#xe5;" horiz-adv-x="731" />
<glyph unicode="&#xe6;" horiz-adv-x="1230" />
<glyph unicode="&#xe7;" horiz-adv-x="735" />
<glyph unicode="&#xe8;" horiz-adv-x="792" />
<glyph unicode="&#xe9;" horiz-adv-x="792" />
<glyph unicode="&#xea;" horiz-adv-x="792" />
<glyph unicode="&#xeb;" horiz-adv-x="792" />
<glyph unicode="&#xec;" horiz-adv-x="331" />
<glyph unicode="&#xed;" horiz-adv-x="331" />
<glyph unicode="&#xee;" horiz-adv-x="331" />
<glyph unicode="&#xef;" horiz-adv-x="331" />
<glyph unicode="&#xf0;" horiz-adv-x="851" />
<glyph unicode="&#xf1;" horiz-adv-x="872" />
<glyph unicode="&#xf2;" horiz-adv-x="872" />
<glyph unicode="&#xf3;" horiz-adv-x="872" />
<glyph unicode="&#xf4;" horiz-adv-x="872" />
<glyph unicode="&#xf5;" horiz-adv-x="872" />
<glyph unicode="&#xf6;" horiz-adv-x="872" />
<glyph unicode="&#xf7;" horiz-adv-x="878" />
<glyph unicode="&#xf8;" horiz-adv-x="872" />
<glyph unicode="&#xf9;" horiz-adv-x="864" />
<glyph unicode="&#xfa;" horiz-adv-x="864" />
<glyph unicode="&#xfb;" horiz-adv-x="864" />
<glyph unicode="&#xfc;" horiz-adv-x="864" />
<glyph unicode="&#xfd;" horiz-adv-x="708" />
<glyph unicode="&#xfe;" horiz-adv-x="903" />
<glyph unicode="&#xff;" horiz-adv-x="708" />
<glyph unicode="&#x141;" horiz-adv-x="722" />
<glyph unicode="&#x142;" horiz-adv-x="331" />
<glyph unicode="&#x152;" horiz-adv-x="1419" />
<glyph unicode="&#x153;" horiz-adv-x="1409" />
<glyph unicode="&#x160;" horiz-adv-x="745" />
<glyph unicode="&#x161;" horiz-adv-x="602" />
<glyph unicode="&#x178;" horiz-adv-x="798" />
<glyph unicode="&#x17d;" horiz-adv-x="892" />
<glyph unicode="&#x17e;" horiz-adv-x="649" />
<glyph unicode="&#x192;" horiz-adv-x="782" />
<glyph unicode="&#x2c6;" horiz-adv-x="657" />
<glyph unicode="&#x2c7;" horiz-adv-x="657" />
<glyph unicode="&#x2d8;" horiz-adv-x="614" />
<glyph unicode="&#x2d9;" horiz-adv-x="323" />
<glyph unicode="&#x2da;" horiz-adv-x="569" />
<glyph unicode="&#x2db;" horiz-adv-x="397" />
<glyph unicode="&#x2dc;" horiz-adv-x="442" />
<glyph unicode="&#x2dd;" horiz-adv-x="616" />
<glyph unicode="&#xe00;" horiz-adv-x="819" />
<glyph unicode="&#xe01;" horiz-adv-x="811" d="M51 672v12q45 35 103 61q49 23 118.5 43.5t159.5 20.5q61 0 125 -20.5t94 -55.5q35 -41 47.5 -86t12.5 -102v-473q0 -39 12 -47q14 -10 45 -11v-14h-178v528q0 109 -54.5 158t-154.5 49q-53 0 -87 -6t-56 -12q-25 -8 -39 -17q10 -10 13 -23t7 -26q2 -14 4 -30v-621h-121 l2 625q0 33 -12 39q-16 8 -41 8z" />
<glyph unicode="&#xe02;" horiz-adv-x="702" d="M76 727v39q37 20 79 21t76.5 -14t57 -48t22.5 -82q0 -45 -17.5 -87t-39 -87t-38.5 -96t-17 -113q0 -16 2 -51t16 -69t45 -59.5t86 -25.5q51 0 79 27t40 61.5t14 68.5t2 48v528h176v-14q-43 0 -49 -14q-8 -10 -8 -55v-437q0 -47 -11 -97t-39 -91t-76 -68.5t-124 -27.5 q-80 0 -132 27.5t-84 68.5t-44 91t-12 97q0 57 19.5 106.5t42 92.5t42 83t19.5 79q0 47 -20.5 68.5t-43.5 27.5q-29 8 -63 2z" />
<glyph unicode="&#xe03;" horiz-adv-x="702" d="M63 641l13 147h86l51 -51l49 51h49v-149v-2q0 -45 -17.5 -86t-39 -85t-38.5 -94t-17 -112q0 -16 2 -51t16 -69t45 -59.5t86 -25.5q51 0 79 27t40 61.5t14 68.5t2 48v528h176v-14q-43 0 -49 -14q-8 -10 -8 -55v-437q0 -47 -11 -97t-39 -91t-76 -68.5t-122 -27.5 q-80 0 -133 27.5t-85 68.5t-44 91t-12 97q0 57 19.5 106.5t42 91.5t42 80t19.5 77q2 23 -4 43q-4 16 -14.5 30.5t-32.5 14.5q-33 0 -46.5 -26t-15.5 -44h-27z" />
<glyph unicode="&#xe04;" horiz-adv-x="821" d="M78 0l4 520q0 45 18.5 96.5t56.5 93.5t99 69.5t147 27.5q88 0 148.5 -27.5t98.5 -69.5t54.5 -93.5t16.5 -96.5v-448q0 -39 12 -47q14 -10 45 -11v-14h-180l4 528q0 16 -8 52t-29.5 72t-61.5 63.5t-102 27.5q-63 0 -103 -27.5t-61.5 -64.5t-28.5 -72.5t-7 -50.5v-241 q6 14 13 26.5t17 26.5q10 16 21.5 29.5t23.5 25.5q31 29 58 41q37 16 74 17q25 0 47 -15q25 -12 28 -41v-20q0 -14 -6 -29q-2 -6 -5 -12t-7 -12q-10 -14 -23 -17q-16 -6 -24 6q-10 8 -19 25q-6 16 -18 29q-8 14 -29 14q-16 0 -35 -12q-10 -4 -19 -11.5t-19 -15.5 q-8 -10 -16.5 -17.5t-16.5 -17.5q-6 -10 -12.5 -17t-10.5 -16q-23 -35 -22 -73v-201h-123z" />
<glyph unicode="&#xe05;" horiz-adv-x="819" d="M78 0l4 520q0 39 13.5 83t42 82t73.5 68.5t106 43.5l86 -86l86 88q66 -12 110 -42t71.5 -69t39 -83t11.5 -85v-448q0 -39 12 -47q14 -10 47 -11v-14h-182l4 528q0 12 -4 37t-16.5 52.5t-33 55t-50.5 46.5l-95 -96l-98 96q-33 -18 -53.5 -46t-31.5 -56.5t-15 -52t-4 -36.5 v-241q6 14 13 26.5t17 26.5q10 16 21.5 29.5t26.5 25.5q27 27 57 41q33 16 72 17q23 0 49 -15q25 -12 28 -41q0 -12 -2 -20q0 -14 -6 -29q-4 -12 -12 -24q-10 -14 -21 -17q-18 -6 -26 6q-10 10 -17 25q-4 8 -9 15t-11 14q-8 14 -29 14q-16 0 -35 -12q-10 -4 -18 -11.5 t-18 -15.5l-17.5 -17.5t-15.5 -17.5q-18 -20 -25 -33q-23 -35 -22 -73v-201h-123z" />
<glyph unicode="&#xe06;" horiz-adv-x="870" d="M68 641l10 147h88l49 -51l51 51h49v-528v-9t4 -15t6.5 -15.5t4.5 -9.5q20 -61 73 -102q51 -39 119 -39q39 0 72 16q31 14 49 43q16 23 27 59q8 33 8 74v402v41v83h119v-77v-129v-324q0 -55 -13 -104q-8 -25 -17 -47.5t-24 -40.5q-27 -37 -71 -62q-41 -20 -105 -20 q-90 0 -149 41t-109 112v-153h-30l-144 49v16q16 6 29 2q8 -2 18 -2q8 4 11 10q2 6 2 37v561q0 14 -5 27q-4 10 -12 18.5t-24 8.5q-33 0 -46.5 -26t-15.5 -44h-24z" />
<glyph unicode="&#xe07;" horiz-adv-x="681" d="M25 776v15h118l226 -629l108 342q20 59 24.5 109.5t-9 85t-46 51t-84.5 8.5v33q53 25 110.5 17.5t97.5 -45.5t50.5 -109.5t-28.5 -176.5l-170 -477h-78q-72 188 -127 340q-25 63 -47.5 125.5t-40.5 114t-30.5 85t-14.5 40.5q-8 29 -19.5 50t-39.5 21z" />
<glyph unicode="&#xe08;" horiz-adv-x="636" d="M25 680q10 10 17 18.5t15 16.5q10 8 17.5 15t17.5 13q41 33 88 50q43 18 96 18q123 0 193 -63q68 -68 68 -191v-12v-473q0 -39 12 -47q14 -10 45 -11v-14h-180l2 201q0 37 -23 75q-10 12 -24 31q-8 10 -15.5 17.5l-17.5 17.5q-10 8 -18.5 15.5t-18.5 11.5q-18 12 -35 12 q-20 0 -28 -14q-6 -6 -11.5 -13.5t-9.5 -15.5q-6 -14 -16 -25q-8 -12 -27 -6q-10 2 -20 17q-10 12 -13 24q-6 14 -6 29q-2 8 -2 20q4 29 29 41q27 14 49 15q39 0 72 -17q31 -14 57 -41q14 -12 25.5 -25.5t21.5 -29.5q16 -25 31 -53l2 241v23v33q0 43 -19 73q-20 33 -47 52 q-14 10 -30.5 17t-34.5 13q-45 10 -74 11q-10 0 -21.5 -2.5t-21.5 -6.5q-12 -4 -24.5 -9l-22.5 -9q-27 -12 -45 -27q-25 -16 -39 -24z" />
<glyph unicode="&#xe09;" horiz-adv-x="819" d="M49 678q18 20 51 42.5t75 42t90 32t100 12.5q184 0 269 -71.5t85 -188.5v-463q0 -35 10 -39q10 -8 41 -8v-12l-147 -41l-17 2v153q-25 -37 -47 -65.5t-53 -48.5q-29 -23 -61.5 -33t-79.5 -10q-43 0 -84 17t-73 50t-52.5 82t-20.5 113v135q0 37 -12 49q-14 10 -45 10v13 h178v-191q0 -16 3 -48t19.5 -62.5t49 -53t92.5 -22.5q43 0 76.5 24.5t56 58t34 67.5t11.5 52v250q0 31 -13.5 68t-43 68.5t-75.5 53t-114 21.5q-72 0 -123 -9t-84.5 -21.5t-52 -23.5t-24.5 -13z" />
<glyph unicode="&#xe0a;" horiz-adv-x="677" d="M76 727v39q37 20 79 21t77.5 -14t58 -48t22.5 -82q0 -45 -18.5 -87t-40 -87t-38.5 -96t-17 -113q0 -16 2 -51t16 -69t45 -59.5t86 -25.5q51 0 79 27t40 61.5t14 68.5t2 48v102q0 66 -18.5 104t-40.5 56q-25 23 -57 27v45q51 -4 77.5 19.5t38.5 52.5q14 35 17 79 q0 100 22 168q27 70 64 101q41 37 84 49q45 8 86 6q38 -2 69 -18q27 -12 35 -31q-4 -16 -8 -27q-4 -8 -9 -13l-9 -9q-10 -10 -23 -10q-12 -2 -27 6q-12 12 -18 20q-4 4 -7 10.5t-7 10.5q-6 8 -19 20q-10 8 -26 8q-33 2 -54 -26q-18 -27 -26 -66q-4 -16 -5 -33.5t-4 -36.5 v-86q0 -102 -43 -151t-94 -70q20 -10 42 -27.5t39.5 -42t28.5 -59.5t11 -80v-90q0 -47 -10 -97t-38 -91t-76 -68.5t-124 -27.5q-80 0 -133 27.5t-85 68.5t-44 91t-12 97q0 57 19.5 106.5t42 92.5t42 83t19.5 79q0 47 -20.5 68.5t-43.5 27.5q-29 8 -63 2z" />
<glyph unicode="&#xe0b;" horiz-adv-x="677" d="M66 641l12 147h86l51 -51l49 51h49v-149v-2q0 -45 -17 -86t-38.5 -85t-39 -94t-17.5 -112q0 -16 2 -51t16 -69t45 -59.5t86 -25.5q51 0 79 27t40 61.5t14 68.5t2 48v102q0 66 -18 104t-41 56q-27 23 -59 27h-17v45q51 -4 79 19.5t40 52.5q14 35 16 79q-2 100 23 168 q27 68 61 101q39 37 84 49q45 8 86 6q39 -2 70 -18q31 -12 35 -31q0 -6 -2 -12.5t-6 -14.5q-4 -10 -17 -22q-14 -10 -22 -10q-12 -4 -29 6q-12 12 -16 20q-4 4 -8.5 10.5t-8.5 10.5q-6 10 -18 20q-8 8 -27 8q-33 2 -53 -26q-18 -29 -25 -66q-8 -31 -8 -70v-86 q0 -49 -11 -84.5t-29.5 -62.5t-41 -43t-47.5 -27q20 -10 44 -26.5t42.5 -42t30.5 -61t12 -83.5v-90q0 -47 -11 -97t-39 -91t-76 -68.5t-124 -27.5q-80 0 -132 27.5t-84 68.5t-44 91t-12 97q0 57 19.5 106.5t42 91.5t42 80t19.5 77q2 23 -4 43q-4 16 -15.5 30.5t-33.5 14.5 q-33 0 -46.5 -26t-15.5 -44h-24z" />
<glyph unicode="&#xe0c;" horiz-adv-x="1243" d="M53 670v12q41 35 94 61q47 23 115 43.5t158 20.5q59 0 122.5 -20.5t96.5 -55.5q35 -41 45 -86t10 -102l2 -111l-2 -172l2 16q0 -63 27 -104q27 -43 70 -70q20 -12 42.5 -20t45.5 -8q61 0 95 25.5t46 47.5q27 41 27 113l-2 528h122v-71v-129v-344q0 -113 -59 -189 q-59 -74 -180 -73q-45 0 -76 10t-59 33q-55 37 -107 114l-2 -153l-14 -2l-148 41v12q31 0 41 8q12 6 13 39l-3 442q0 109 -54 158t-152 49q-53 0 -87 -6t-53 -12q-23 -8 -30 -17q10 -10 14 -23l8 -26q4 -14 4 -31v-430q0 -10 2 -27.5t8.5 -34.5t18.5 -31.5t33 -20.5 q29 -10 66.5 -2t66.5 22v-33q-20 -25 -49 -43q-25 -16 -60 -26t-80 -2q-47 8 -72.5 32.5t-37.5 55.5t-15.5 60.5t-3.5 47.5v236q0 90 2 201q0 33 -12 39q-16 8 -39 8z" />
<glyph unicode="&#xe0d;" horiz-adv-x="1243" d="M53 670v12q41 35 94 61q47 23 115 43.5t158 20.5q59 0 123.5 -20.5t95.5 -55.5q35 -41 46 -86t11 -102l-2 -221q0 -14 6.5 -43t24.5 -56.5t52 -49t91 -21.5q55 0 91 25.5t56.5 60t28 69.5t7.5 51l-4 430h122v-71v-199v-151v-2q0 -92 -5 -149.5t-19 -96.5 q-23 -66 -64 -101q-55 -47 -119.5 -62t-123 -13t-104.5 15t-66 26q-33 16 -35 32q0 8 8 25q6 16 18 22q10 10 21 13q14 0 29 -8q12 -12 16 -21l12 -16t11 -13q6 -6 17 -15t28 -13q8 -2 38.5 -6t69.5 4t77 37.5t62 95.5q-33 -18 -75.5 -29.5t-96.5 -11.5q-76 0 -131 21.5 t-92 57.5t-54.5 80t-17.5 91l5 196q0 109 -55.5 158t-153.5 49q-53 0 -86 -6t-52 -12q-23 -8 -30 -17q10 -10 13 -23t7 -26q2 -14 4 -31v-430q0 -10 2 -27.5t9.5 -34.5t19.5 -31.5t31 -20.5q29 -10 66.5 -2t66.5 22v-33q-20 -25 -49 -43q-25 -16 -60 -26t-80 -2 q-47 8 -72.5 32.5t-37.5 55.5t-14.5 60.5t-2.5 47.5v236q0 90 2 201q0 33 -12 39q-16 8 -41 8z" />
<glyph unicode="&#xe0e;" horiz-adv-x="808" d="M51 59q8 -8 23 -12q12 -6 20 -6q12 0 19 14q6 8 10 31q2 10 3 18.5t1 16.5q2 10 2 24v478q0 35 -12 41t-41 6v14q45 35 102 61q49 23 120 42.5t161 19.5q59 0 122.5 -20.5t96.5 -55.5q35 -39 46 -84t11 -104v-582q0 -102 -24 -166q-27 -70 -64 -100q-41 -39 -84 -47 q-12 -2 -24 -2q-10 0 -25.5 2t-30.5 10q-10 6 -25.5 17.5t-33.5 25.5q-53 -47 -111.5 -54t-101.5 11q-43 16 -57.5 47t-9 61.5t28 55t56.5 28.5q72 10 119 -23.5t82 -74.5q16 18 21 35q2 8 2 14q0 10 -2 16.5t-7 12.5q-4 4 -10 9t-10 9q-10 4 -23 15q-8 4 -20 16 q-10 16 -6 29q0 8 10 22q12 12 23 17q16 8 24 8q20 -4 33 -33q14 -29 20 -69q2 -20 0 -41q-2 -18 -10 -39t-24 -43q20 -23 38.5 -38.5t40.5 -15.5q35 0 54 27q16 25 22 61q4 18 6 38l4 40v684q0 111 -55 160t-153 49q-53 0 -88 -6t-58 -12q-25 -8 -39 -19q10 -10 14.5 -23 t8.5 -26q4 -14 4 -31l-6 -366l-4 -135q-2 -29 -5.5 -50.5t-9.5 -35.5q-14 -29 -37 -39q-23 -8 -57 4q-39 14 -78 39zM222 -283.5q9 -17.5 30.5 -28t51 -10t58.5 14.5q23 10 39 26q-29 23 -60.5 41.5t-57.5 20.5q-27 2 -39.5 -6t-20.5 -23q-10 -18 -1 -35.5z" />
<glyph unicode="&#xe0f;" horiz-adv-x="811" d="M53 59q8 -8 23 -12q12 -6 20 -6q12 0 19 14q6 8 10 31q2 10 3 18.5t1 16.5q2 10 2 24v478q0 35 -12 41t-41 6v14q45 35 102 61q49 23 120 42.5t161 19.5q59 0 122.5 -20.5t96.5 -55.5q35 -39 46 -84t11 -104v-582q0 -102 -24 -166q-27 -70 -64 -100q-41 -39 -84 -47 l-59 71l-57 -71q-23 8 -41.5 20.5t-34.5 26.5q-29 -25 -58.5 -37t-58.5 -14t-54.5 3t-43.5 15q-37 18 -50.5 50t-5 61.5t33 52t63.5 27.5q63 4 106 -30t78 -69q14 27 14 47q2 14 -8 29q-12 12 -20 18q-4 4 -10.5 7.5t-12.5 7.5q-14 8 -18 16q-12 14 -9 29q2 6 4.5 11t6.5 11 q10 10 22 17q8 4 14.5 6t12.5 2q16 -2 33 -33q16 -31 18 -65q2 -25 0 -47q-2 -20 -8 -42t-16 -38q8 -8 15 -14.5t15 -10.5l70 86l74 -92l2 2q4 4 6 8q14 16 20 55q4 18 6 38l4 40v684q0 111 -55 160t-153 49q-53 0 -88 -6t-58 -12q-25 -8 -39 -19q10 -10 14.5 -23t8.5 -26 q4 -14 4 -31l-6 -366l-4 -135q-4 -59 -15 -88q-16 -29 -37 -37q-23 -8 -57 4q-39 14 -78 39zM178 -283.5q8 -17.5 28.5 -28t46 -13t48.5 7.5q31 16 51 32q-27 23 -51.5 41.5t-52.5 22.5q-29 4 -44.5 -4t-23.5 -23q-10 -18 -2 -35.5z" />
<glyph unicode="&#xe10;" horiz-adv-x="643" d="M-21.5 -226.5q7.5 29.5 33 52t64.5 27.5q61 4 105 -30t77 -69q8 14 11 25.5t5 21.5q2 14 -8 29q-4 4 -10 9t-10 9q-10 4 -23 15q-8 4 -20 16q-10 16 -6 29q4 12 10 22q12 12 22 17q6 4 13.5 6t11.5 4q18 -6 35 -35q12 -33 18 -65q0 -25 -2 -47q-2 -20 -7 -42t-17 -38 q10 -8 17 -14.5t13 -10.5l72 86l74 -90q27 23 40 45.5t19 38.5q8 20 8 39q0 20 -14 29q-12 12 -29 18q-16 8 -24 18q-12 8 -6 25q6 14 16 23q12 10 27 12q12 6 26 6q6 0 11.5 1t9.5 1q31 -6 41 -31q14 -23 14 -47q0 -39 -16 -72q-10 -29 -31 -57q-16 -25 -43 -52.5 t-66 -49.5l-57 71l-59 -71q-20 8 -39 20.5t-35 26.5q-55 -51 -116.5 -52t-100.5 19q-37 18 -49.5 50t-5 61.5zM25 680q10 10 17 17.5t15 17.5l17.5 14l17.5 14q41 33 88 50q45 16 96 16q82 0 144 -29q2 76 22 135q25 63 64 101q18 18 39.5 29.5t44.5 17.5q41 12 84 8 q38 -2 69 -18q33 -16 35 -33q0 -14 -8 -25q-6 -16 -16 -22q-8 -8 -23 -12q-14 -4 -26 8q-12 6 -19 18q-4 6 -7 12.5t-7 10.5q-8 12 -21 20q-8 8 -26 8q-35 0 -54 -26q-8 -14 -14 -30.5t-10 -35.5q-8 -35 -8 -78v-59l-2 -281v-456q0 -37 12 -49q10 -8 47 -9v-14h-182l2 201 q0 39 -23 73q-4 6 -10 14.5t-14 16.5q-12 16 -33 35q-10 10 -18.5 16t-18.5 13q-18 12 -35 12q-18 0 -28 -14q-14 -18 -19 -29q-4 -8 -9 -14.5t-9 -12.5q-10 -10 -25 -6q-10 4 -22 17q-10 12 -13 26q-6 14 -6 27q0 8 -1 13t-1 9q6 31 31 41q25 12 47 13q43 0 72 -15 q16 -8 30.5 -18t28.5 -23q20 -20 45 -55q18 -29 31 -55l2 241v23v35q0 39 -19 73q-16 27 -47 52q-29 20 -65 28q-18 6 -37 8.5t-37 2.5q-23 0 -43 -7q-25 -10 -47 -20q-12 -6 -23.5 -12.5t-21.5 -12.5q-10 -8 -19.5 -14t-17.5 -12zM55 -283.5q8 -17.5 27.5 -28t45 -13 t48.5 7.5q33 14 51 32q-25 23 -49 41.5t-55 22.5q-27 4 -42 -4t-24 -23q-10 -18 -2 -35.5z" />
<glyph unicode="&#xe11;" horiz-adv-x="905" d="M68 641l12 147h86l51 -49l49 49h45v-135q49 72 109 113q61 43 149 43q57 0 107 -23q47 -27 69 -61q29 -39 41 -88q14 -45 15 -107v-446q0 -43 6 -55q8 -14 49 -15v-14h-176v528q0 41 -8 72q-6 33 -27 62q-18 27 -49 43q-33 16 -72 16q-68 0 -118 -39q-51 -39 -74 -102 q-2 -4 -4 -9.5t-6 -15.5q-6 -18 -7 -25v-530h-118v659q0 14 -4 27q-4 10 -12.5 18.5t-24.5 8.5q-35 0 -48.5 -25.5t-15.5 -46.5h-24z" />
<glyph unicode="&#xe12;" horiz-adv-x="1308" d="M61 381q0 82 21 156q23 80 63 135q23 31 49.5 54.5t59.5 41.5q16 10 33.5 15t40.5 10l102 -93l94 101q68 -8 113 -32t72.5 -58.5t40 -77.5t12.5 -90l2 -29l-2 -135v-105q0 -55 26 -102q16 -31 51 -59.5t91 -38.5q23 -6 45 -2t43 14q43 18 67 61q27 41 27 113l-2 526h123 v-542q0 -113 -59 -189q-59 -74 -181 -73q-31 0 -65.5 11t-67.5 30q-31 18 -57.5 48.5t-48.5 67.5l-2 -153l-15 -4l-147 43v12q25 0 41 6q6 4 9 18.5t3 30.5l-2 387q0 88 -23.5 152.5t-80.5 93.5l-107 -115l-117 105q-10 -4 -14 -8q-49 -35 -80 -107q-33 -68 -33 -180 q0 -121 33 -195q31 -78 80 -114q25 -20 51.5 -32.5t55.5 -12.5q43 0 64.5 12t37.5 28v-32q-12 -25 -49 -55.5t-99 -30.5q-18 0 -52 5t-66 21q-63 31 -103 86q-37 51 -59 129q-18 70 -19 152z" />
<glyph unicode="&#xe13;" horiz-adv-x="1271" d="M55 668v14q41 35 95 61q47 23 114.5 43.5t157.5 20.5q59 0 123.5 -21.5t95.5 -56.5q35 -39 46 -84t11 -102v-283q0 -72 27 -113q25 -43 68 -61q41 -18 88 -12q20 2 42.5 13t42 26.5t35 31t21.5 27.5q27 41 27 102v512h122l-2 -702q0 -35 13 -41q12 -6 39 -6v-12l-148 -43 l-14 4l-2 153q-45 -72 -107 -116q-29 -20 -64.5 -30.5t-68.5 -10.5q-123 0 -180 73q-59 76 -59 189l2 280q0 111 -55.5 160t-153.5 49q-53 0 -86 -6t-52 -12q-23 -8 -30 -17q10 -10 13 -23t7 -26q2 -14 4 -31v-430q0 -10 2 -27.5t9.5 -34.5t19.5 -32.5t31 -21.5 q29 -8 66.5 0t66.5 22v-33q-20 -25 -49 -43q-25 -16 -59.5 -26t-80.5 -2q-47 6 -72.5 31.5t-37.5 56.5t-14.5 60.5t-2.5 47.5v236q0 90 3 201q0 33 -13 39q-12 6 -41 6z" />
<glyph unicode="&#xe14;" horiz-adv-x="851" d="M61 383q0 82 21 156q23 80 63 135q23 31 49.5 54.5t59.5 41.5q35 18 81 27.5t91 9.5q86 0 146.5 -20.5t98.5 -56.5t55 -84t17 -101l2 -29v-444q0 -37 13 -49q10 -8 47 -9v-14h-182v481q0 117 -49.5 190.5t-151.5 73.5q-29 0 -63.5 -9t-59.5 -27q-49 -35 -80 -107 q-33 -68 -33 -180q0 -121 33 -195q31 -78 80 -114q25 -20 51.5 -32.5t55.5 -12.5q43 0 64.5 12t37.5 29l2 -33q-14 -25 -51 -55.5t-97 -30.5q-20 0 -54 5t-66 21q-63 31 -103 86q-37 51 -59 129q-18 70 -19 152z" />
<glyph unicode="&#xe15;" horiz-adv-x="874" d="M63 383q0 82 21 156q18 72 63 135q23 31 49.5 54.5t59.5 41.5q31 18 72 25l102 -93l96 101q66 -8 112 -31.5t73.5 -58.5t40 -78t12.5 -90v-29v-444q0 -37 12 -49q14 -8 47 -9v-14h-180v481q0 88 -24.5 152.5t-79.5 93.5l-109 -115l-117 105q-8 -4 -12 -8 q-49 -33 -82 -107q-33 -76 -33 -180q0 -59 8.5 -107.5t24.5 -87.5q35 -80 82 -114q25 -20 50.5 -32.5t54.5 -12.5q43 0 64.5 12t39.5 29v-33q-12 -25 -49 -55.5t-99 -30.5q-20 0 -54 5t-64 21q-61 29 -103 86q-41 57 -59 129q-18 70 -19 152z" />
<glyph unicode="&#xe16;" horiz-adv-x="819" d="M55 670v14q45 35 103 61q49 23 118.5 43.5t159.5 20.5q59 0 123 -21.5t96 -56.5q35 -39 46.5 -84t11.5 -102h2v-473q0 -37 12 -49q10 -8 45 -9v-14h-180l2 526q0 111 -55.5 160t-153.5 49q-53 0 -88 -6t-57 -12q-25 -8 -39 -17q10 -10 14 -23l8 -26q4 -14 4 -30v-431 q0 -10 2 -27.5t8.5 -34.5t18.5 -31.5t33 -20.5q29 -10 66.5 -2t66.5 22v-33q-20 -25 -49 -43q-25 -16 -59.5 -26t-80.5 -2q-47 6 -72.5 31.5t-37.5 56.5t-15.5 60.5t-3.5 47.5v236q0 90 2 201q0 33 -12 39t-39 6z" />
<glyph unicode="&#xe17;" horiz-adv-x="813" d="M53 776v12h172v-135q43 68 109 113q63 41 149 41q63 0 107 -23q41 -20 69 -59q29 -43 41 -88q6 -25 10.5 -51.5t4.5 -55.5v-446q0 -43 6 -57q8 -12 49 -13v-14h-176v528q0 41 -8 72q-6 29 -27 62q-18 27 -49 43q-29 14 -72 14q-72 0 -119 -39q-51 -37 -73 -100 q-4 -4 -5 -10.5t-5 -16.5q-6 -16 -7 -25v-262v-188v-78h-118v84v106v517q0 41 -9 55q-8 14 -49 14z" />
<glyph unicode="&#xe18;" horiz-adv-x="712" d="M80 264v125h119v-131q0 -16 5 -50t22.5 -69t51 -61.5t89.5 -26.5q57 0 89.5 26.5t50 62.5t23 72t5.5 54q0 78 -45.5 114t-110.5 58q-31 10 -81 21.5t-99 32t-84 53.5t-35 88q0 82 74.5 127t210.5 45q70 0 129 -17.5t88 -17.5l14 27h8v-185h-12q-8 18 -25.5 42t-45 45.5 t-66.5 37t-88 15.5q-86 0 -127 -29t-41 -72q0 -31 21.5 -48t56 -29.5t78.5 -21.5t87 -24q72 -25 114 -56.5t63.5 -65t27.5 -68.5t6 -66q0 -47 -11 -98t-43 -94t-87 -71.5t-143 -28.5q-76 0 -130.5 27.5t-90 68.5t-52 91t-16.5 97z" />
<glyph unicode="&#xe19;" horiz-adv-x="821" d="M55 772v12h181l-5 -526q0 -66 27 -113q29 -43 70 -61q39 -18 88 -12q47 4 88 28q43 25 69 70q27 41 27 102v512h123l-4 -702q0 -35 12 -41t41 -6v-12l-147 -43l-15 4l-2 153q-49 -76 -106 -117q-59 -41 -150 -40q-123 0 -180 73q-59 76 -59 189v473q0 37 -13 47 q-14 10 -45 10z" />
<glyph unicode="&#xe1a;" horiz-adv-x="796" d="M55 772v12h181l-3 -526q0 -18 7.5 -52t28 -69t56 -60.5t91.5 -25.5q57 0 93 26.5t56.5 62.5t27.5 70t7 48v526h123l-2 -518q0 -47 -19.5 -97t-58.5 -92t-95 -69.5t-132 -27.5q-88 0 -146.5 27.5t-93.5 69.5t-49 92t-14 97v449q0 37 -13 47q-14 10 -45 10z" />
<glyph unicode="&#xe1b;" horiz-adv-x="790" d="M53 772v12h180l-2 -526q0 -18 7.5 -52t27 -69t55 -60.5t93.5 -25.5q57 0 93 26.5t56.5 62.5t27.5 70t7 48v393v418q0 31 -2 37q-4 12 -10 12q-6 4 -17 0q-6 0 -12 1t-14 3v11l143 43h31v-392h4l-2 -518q0 -47 -19.5 -97t-58.5 -92t-96.5 -69.5t-130.5 -27.5 q-88 0 -146.5 27.5t-93.5 69.5t-49 92t-14 97v449q0 37 -13 47q-14 10 -45 10z" />
<glyph unicode="&#xe1c;" horiz-adv-x="978" d="M64.5 601.5q9.5 72.5 44 113.5t83 57t87.5 16v-32q-45 -12 -67 -40t-29 -63t-2 -73.5t16 -75.5l90 -348l182 632h55l191 -673q12 25 20 55.5t12.5 58t5.5 50t1 32.5v477h174v-14q-41 0 -47 -12q-8 -10 -9 -47v-119v-277q0 -47 -10 -102t-37.5 -103t-75 -81t-122.5 -33 l-160 539l-158 -539h-80l-133 418q-41 111 -31.5 183.5z" />
<glyph unicode="&#xe1d;" horiz-adv-x="946" d="M65.5 600.5q10.5 71.5 45 113.5t83 58t87.5 16v-32q-45 -12 -68 -40t-29 -63t-2 -73.5t15 -75.5l92 -348l180 632h55l191 -673q14 25 21 55.5t11.5 58t5.5 50t1 32.5v760q0 27 -4 39q0 8 -9 12h-18h-10t-17 4v9l144 45l32 -2v-859q0 -47 -10 -102t-37.5 -103t-75 -81 t-122.5 -33l-160 539l-158 -539h-80l-133 418q-41 111 -30.5 182.5z" />
<glyph unicode="&#xe1e;" horiz-adv-x="946" d="M53 776v12h174l2 -477q0 -12 1 -33.5t7.5 -46t18.5 -50t35 -44.5l178 651h55l178 -694l-6 -8q20 23 31.5 56.5t18 67.5t7.5 62.5t1 38.5v477h118v-469q0 -47 -10 -102t-37.5 -103t-75 -81t-122.5 -33l-160 539l-158 -539q-59 12 -98 47t-61.5 81t-30.5 97t-8 94l-2 388 q0 39 -7 55q-10 14 -49 14z" />
<glyph unicode="&#xe1f;" horiz-adv-x="946" d="M53 776v12h176v-477q0 -12 1 -33.5t7.5 -46t18.5 -50t35 -44.5l178 651h55l178 -694l-6 -8q20 23 31.5 56.5t18 67.5t7.5 62.5t1 38.5v762q0 25 -4 37q0 8 -9 12h-18q-4 0 -10 1t-17 3v9l144 45l32 -2v-859q0 -47 -10 -102t-37.5 -103t-75 -81t-122.5 -33l-160 539 l-158 -539q-59 12 -98 47t-61.5 81t-30.5 97t-8 94v388q0 35 -9 55q-10 14 -49 14z" />
<glyph unicode="&#xe20;" horiz-adv-x="845" d="M55 59q8 -8 21 -14q8 -2 13 -3t9 -1q12 0 19 12q4 8 6 15.5t4 17.5t3 17.5t1 17.5q0 8 1 14t1 10v478q0 35 -12 41t-41 6v14q45 35 102 61q49 23 120 42.5t161 19.5q59 0 122.5 -20.5t96.5 -55.5q35 -39 46 -84t11 -104v-471q0 -37 13 -49q14 -10 47 -11v-12h-183l5 526 q0 111 -55.5 160t-153.5 49q-53 0 -88 -6t-58 -12q-25 -8 -39 -19q10 -10 13.5 -23t7.5 -26q2 -14 4 -31l-4 -372l-4 -129q-4 -59 -15 -88q-16 -31 -36 -37q-23 -8 -58 4q-39 14 -78 39z" />
<glyph unicode="&#xe21;" horiz-adv-x="813" d="M78 29v16q8 4 15 4h13q8 -2 19 -2q4 0 8 10q4 6 4 35v610q0 41 -8 56q-8 14 -47 14v12h174v-77v-37v-412q0 -6 6 -25q4 -10 5 -15t3 -9q23 -61 74 -103q51 -39 121 -38q45 0 72 16q29 16 47 41t28 61q4 16 6.5 35t2.5 39v402v40v82h118v-77v-129v-322q0 -29 -3 -55.5 t-11 -50.5q-6 -25 -16.5 -46.5t-22.5 -42.5q-29 -37 -72 -59q-45 -23 -104 -22q-92 0 -150 43q-59 39 -108 110v-151l-33 -2z" />
<glyph unicode="&#xe22;" horiz-adv-x="813" d="M68 612q0 18 5 48t21.5 60t48 53.5t84.5 29.5q41 4 71 -5.5t52 -23.5q25 -16 45 -39v-33q-29 14 -67.5 24.5t-79.5 -11.5q-35 -16 -48.5 -48t-13.5 -67q4 -45 34 -68.5t70 -33t82 -5t66 16.5v-37q-12 -12 -30 -20q-16 -8 -37 -14.5t-49 -10.5v-2q-29 -6 -52 -27 q-20 -16 -35.5 -50t-15.5 -91q0 -20 7 -55t26.5 -69t55.5 -58.5t93 -24.5t93 26.5t56.5 61.5t28 69t7.5 50v223l-2 303h182v-14q-37 0 -47 -8q-12 -12 -12 -49v-234v-215q0 -47 -19.5 -97t-58.5 -91t-96.5 -68.5t-131.5 -27.5q-88 0 -146 22.5t-93 59t-49.5 84t-14.5 96.5 q0 82 31 129t72 71q-55 20 -93 64.5t-40 105.5z" />
<glyph unicode="&#xe23;" horiz-adv-x="634" d="M78 -14l2 209l14 2q12 -51 43 -84t74 -54q43 -16 86 -16q23 -2 43 2t39 10q35 14 61 45q25 31 25 76t-29 80q-16 16 -32.5 30.5t-38.5 26.5q-43 27 -93 49q-27 12 -49 24.5t-45 29.5q-43 35 -69 73q-31 43 -31 105q0 47 20 92q20 41 54 68q16 14 36.5 23t42.5 18 q23 6 46.5 10t46.5 4q59 0 107 -15.5t73 -19.5l12 27h8v-185h-12q-29 72 -86 103q-55 31 -111 31q-57 0 -96 -33q-41 -31 -41 -88q0 -43 31 -74q27 -31 74 -55q23 -12 46 -25.5t48 -25.5q57 -27 96 -58q43 -29 74 -76q31 -43 31 -106q0 -100 -74 -162q-39 -33 -90 -49 q-25 -8 -50.5 -11t-50.5 -3q-39 0 -77 6q-18 4 -38 7t-38 7q-6 2 -13.5 4t-13.5 4q-16 4 -27 4q-6 0 -12 -18q-2 -4 -2 -7t-4 -5h-10z" />
<glyph unicode="&#xe24;" horiz-adv-x="792" d="M59 674v14q45 35 103 62q49 23 118.5 43t159.5 20q59 0 123 -21.5t96 -56.5q35 -39 47.5 -84t12.5 -102v-584q0 -102 -25 -166q-25 -66 -65 -100q-33 -33 -84 -47q-47 -10 -84 -6q-43 4 -70 18q-33 16 -35 33q0 6 2 12t7 15q6 12 16 22q8 6 22 10t29 -8q10 -8 17 -18 q4 -6 8 -12.5t8 -10.5q4 -8 16 -20q10 -8 29 -9q35 -4 53 25q16 25 27 66q4 20 6 38.5t2 38.5v60v624q0 111 -55.5 160t-153.5 49q-53 0 -88 -6t-57 -12q-25 -8 -39 -16q10 -10 14 -23.5t8 -26.5q4 -14 4 -30v-437q0 -10 2.5 -27.5t8.5 -34.5t18 -32.5t33 -21.5 q29 -8 66.5 -1t66.5 23v-33q-20 -25 -49 -43q-25 -16 -59.5 -26t-79.5 -2q-47 6 -73 31.5t-38 56.5t-15 60.5t-3 47.5v32v57.5t1 72.5t1 78q0 92 2 203q0 33 -13 39q-12 6 -41 6z" />
<glyph unicode="&#xe25;" horiz-adv-x="774" d="M61 190q0 49 17 89q18 35 49 63q33 29 70 49q20 10 39.5 19.5t42.5 19.5q78 33 131 41q31 6 60.5 13.5t59.5 17.5v82q0 20 -4 38.5t-14 34.5q-29 45 -69 68t-117 23q-45 0 -84 -12.5t-69 -27t-48.5 -27.5t-22.5 -15l-20 14q4 4 25.5 24.5t59.5 44t91 42t123 18.5 q137 0 201 -64q66 -61 65 -190v-414v-26q2 -8 2 -16.5t2 -18.5q4 -16 11 -31q6 -12 18 -12q14 0 22 4q12 6 21 14l-2 -26q-23 -12 -41 -22.5t-35 -16.5q-31 -12 -57 -4q-25 10 -37 39q-14 35 -14 88l-7 137v190l-102 -26q-18 -6 -37.5 -11.5t-42.5 -13.5q-41 -12 -78 -35 t-61 -55q-23 -33 -23 -80q0 -57 27 -90q27 -35 63 -45q37 -12 82 -6q41 6 84 28l-2 -32q-16 -27 -58 -56.5t-101 -33.5q-41 -2 -86 14q-43 16 -70 41q-16 14 -26.5 30.5t-20.5 34.5q-16 35 -17 86z" />
<glyph unicode="&#xe26;" horiz-adv-x="813" d="M57 33v24q4 -4 21 -12q12 -6 22 -6q8 0 19 14q4 8 8 31q4 10 4 18.5v16.5q2 10 2 15v9l2 484q0 31 -14 39q-10 8 -39 8v12q45 35 102 62q49 23 119 43t160 20q59 0 122.5 -20.5t96.5 -55.5q35 -41 47 -86t12 -102l-2 -600q0 -53 -6 -85t-18 -65q-25 -66 -64 -100 q-37 -35 -86 -47q-23 -4 -43 -7t-41 1q-39 2 -69 18q-33 16 -35 33q0 6 2 12t6 14q12 16 18 23q10 8 23 10q12 4 27 -8l9 -9l9 -9q8 -16 14 -23q6 -10 19 -20q8 -8 26 -9q35 -4 54 25q16 25 26 66q8 35 8 77q2 18 2.5 34t0.5 26v626q0 109 -55.5 158t-153.5 49q-53 0 -88 -6 t-58 -12q-25 -8 -39 -17q10 -10 14.5 -23t8.5 -26q4 -14 4 -30l-6 -369l-4 -137q0 -53 -15 -88q-16 -31 -36 -39q-27 -6 -58 4q-16 6 -35.5 16t-42.5 23z" />
<glyph unicode="&#xe27;" horiz-adv-x="739" d="M53 637q93 164 275 164q84 0 155 -33q68 -35 109 -88q45 -51 67 -127q23 -78 23 -154q0 -88 -27 -161q-25 -78 -84 -142q-39 -41 -90 -71q-27 -14 -53.5 -25.5t-54.5 -15.5q-49 -8 -104.5 -1t-108.5 40q-18 10 -30.5 24t-16.5 25q-12 20 -9 41q4 18 33 28q23 6 31 -8 q4 -8 9 -17.5t13 -19.5t17.5 -21.5t25.5 -17.5q20 -10 47 -12t52.5 1t48 10t35.5 14q49 25 84 71q33 43 49 103q16 61 16 121q0 63 -18 124q-18 66 -53 113q-35 49 -86 80q-53 31 -123 31q-27 0 -58 -6q-37 -10 -65 -21q-33 -16 -58 -33q-29 -25 -38 -45z" />
<glyph unicode="&#xe28;" horiz-adv-x="821" d="M76 0l4 520q0 45 18.5 96.5t56.5 92.5t99 68.5t147 27.5q66 0 115 -14.5t86 -40.5q-2 98 23 165q25 63 61 101q37 35 84 47q43 12 86 8q39 -2 70 -18q29 -14 35 -33q0 -6 -2.5 -12.5t-6.5 -14.5l-8 -12t-10 -10q-12 -8 -21 -10q-14 -4 -28 8q-10 6 -17 18q-4 6 -8 11.5 t-8 11.5q-8 12 -18 20q-12 8 -27 8q-35 0 -53 -26q-18 -27 -25 -66q-8 -35 -8 -78q-2 -39 0 -59l-2 -281v-8v-448q0 -37 12 -49q14 -10 45 -11v-12h-180l4 526q0 18 -8 54t-29.5 72t-61.5 62.5t-102 26.5q-63 0 -103 -27.5t-61.5 -64.5t-28.5 -72.5t-7 -50.5v-239 q6 12 13 25.5t17 25.5q10 16 21.5 30.5t23.5 26.5q14 12 27.5 21.5t30.5 19.5q31 14 74 15q23 0 47 -13q27 -14 28 -41v-22q0 -14 -6 -27q-2 -8 -5 -14t-7 -12q-12 -12 -23 -17q-16 -4 -24 6q-4 6 -9.5 12.5t-9.5 14.5q-8 14 -18 29q-10 14 -29 14q-16 0 -35 -12 q-25 -14 -36 -29q-18 -16 -35 -35q-6 -10 -12.5 -17t-10.5 -14q-23 -35 -22 -73v-201h-123z" />
<glyph unicode="&#xe29;" horiz-adv-x="854" d="M55 772v12h183l-5 -526q0 -18 7.5 -52t28 -69t56 -60.5t91.5 -25.5q57 0 93 26.5t56.5 61.5t28.5 69t8 50v45q-104 2 -154.5 44t-50.5 102q0 35 10.5 57t24.5 39q14 18 35 28q39 -4 54.5 -18t12 -33.5t-20.5 -39t-44 -33.5q-16 -10 -8 -30t45 -24q20 0 43.5 -1t52.5 -1 v391h121l-2 -389h82h4v-22l-53 -66h-2h-31v-43q0 -47 -19.5 -97t-58.5 -91t-95 -68.5t-132 -27.5q-88 0 -146.5 27.5t-92.5 68.5t-48 91t-14 97v449q0 37 -13 49q-14 10 -47 10z" />
<glyph unicode="&#xe2a;" horiz-adv-x="794" d="M78 190q0 51 18 89q18 39 47 63q33 29 70 49q20 10 40.5 19.5t43.5 19.5q72 31 131 43q59 10 121 31v80q0 43 -19 73q-31 45 -70.5 68t-115.5 23q-45 0 -84 -11.5t-68.5 -27t-49 -28.5t-23.5 -15l-21 14q4 4 25.5 24.5t59.5 44t91.5 42t122.5 18.5q94 0 150 -29 q2 76 22 135q25 63 64 101q37 37 84 47q41 12 84 8q38 -2 69 -18q33 -16 35 -33q0 -14 -8 -25q-6 -16 -16 -22q-8 -8 -23 -12q-12 -2 -27 8q-10 4 -18 18q-4 6 -7 12.5t-7 10.5q-8 12 -21 20q-8 8 -26 8q-35 0 -54 -26q-8 -14 -14 -30.5t-10 -35.5q-8 -35 -8 -78v-59 l-2 -240v-14v-414q0 -4 1 -10t1 -14t1 -16.5t3 -18.5q2 -16 10 -31q6 -14 18 -14q6 0 23 6q10 2 20 12l-2 -24q-39 -25 -77 -39q-35 -12 -58 -4t-37 37q-10 29 -14 88l-4 139v188l-103 -26q-20 -4 -39.5 -10.5t-41.5 -12.5q-43 -16 -78 -37q-39 -23 -60 -55q-23 -29 -22 -80 q0 -57 24 -90q27 -33 64 -45q39 -12 84 -6q23 4 43 11t39 20l-2 -35q-16 -27 -57.5 -56.5t-100.5 -33.5q-23 -2 -44.5 3t-41.5 11q-41 16 -70 41q-31 29 -47 65q-18 39 -18 86z" />
<glyph unicode="&#xe2b;" horiz-adv-x="827" d="M57 776v12h181v-260q14 4 29.5 8.5t31.5 8.5q29 10 84 18t109.5 20.5t95.5 34t41 58.5q0 27 -18.5 42t-48.5 20t-65.5 -1t-68.5 -24v26q18 20 43 37q23 14 53.5 24.5t71.5 6.5q51 -6 81 -23.5t45 -39t18 -45t1 -40.5q-4 -47 -41.5 -79.5t-97.5 -49.5q45 -20 64 -45 q57 -72 57 -188v-225q0 -37 12 -49q14 -10 47 -11v-12h-182l4 281q0 74 -26 112q-25 37 -65 63.5t-105 26.5q-72 0 -112 -10t-58 -18v-455h-123v717q0 39 -13 49q-14 10 -45 10z" />
<glyph unicode="&#xe2c;" horiz-adv-x="948" d="M55 776v12h174v-477q0 -12 2 -33.5t8.5 -46t18.5 -50t35 -44.5l178 651h55l176 -694l-6 -6q20 23 31.5 56.5t18 67.5t7.5 61.5t1 37.5v426v60.5t-2 54.5q-43 -18 -84 -18t-74 10q-49 16 -66.5 49t-6.5 66.5t48 58t97 24.5q109 0 161 -86q6 12 8.5 24.5t4.5 23.5 q2 10 2 22q0 16 -11 27q-10 12 -18 18q-12 8 -22 14q-8 6 -21 19q-8 14 -8 26q4 14 12 23q6 8 23 18q16 8 24 9q18 -6 33 -35q14 -29 20 -70q2 -27 0 -53q-2 -23 -8 -48.5t-22 -47.5q31 -66 30 -162v-445q0 -47 -10 -102t-37.5 -103t-74.5 -81t-123 -33l-160 539l-160 -539 q-59 12 -98 47t-61.5 81t-30.5 97t-8 94v388q0 41 -9 55q-8 14 -47 14zM592 903q12 -16 36.5 -25.5t57.5 -9.5t62 13q-8 37 -24.5 61.5t-51.5 28.5q-27 4 -50.5 -5.5t-29.5 -23.5q-12 -23 0 -39z" />
<glyph unicode="&#xe2d;" horiz-adv-x="829" d="M80 621q51 88 137 137q90 45 180 45q96 0 181 -47q84 -45 139 -138q55 -92 55 -229q0 -135 -55 -227q-29 -47 -64 -80t-75 -57q-41 -25 -84 -35t-80 -10q-31 0 -68 4t-75 17t-74.5 36.5t-65.5 62.5q-29 37 -40 82t-5 90t27.5 83t62.5 63q35 23 73 28t70 0q37 -4 72 -16 l-2 -37q-29 0 -57 -6q-25 -4 -51.5 -15.5t-44.5 -31.5q-23 -23 -29 -58.5t0 -73.5t25.5 -73t48.5 -53q39 -25 73.5 -32t67.5 -7t70.5 18.5t70.5 60.5t53.5 107.5t20.5 159.5q0 27 -4 69t-17.5 85t-39 83t-66.5 66q-37 25 -108.5 35t-163.5 -31q-33 -14 -57.5 -31.5 t-43.5 -33.5q-23 -20 -39 -39z" />
<glyph unicode="&#xe2e;" horiz-adv-x="843" d="M80 621q55 92 139 137q82 45 178 45t178 -45l189 45l8 -21l-115 -86q16 -16 32 -35.5t28 -42.5q55 -92 55 -227q0 -137 -55 -229q-55 -88 -139 -135q-41 -25 -84 -36t-80 -11q-31 0 -68 4t-75 17t-74.5 37.5t-65.5 63.5q-29 37 -40 81t-5 89t27.5 84t62.5 64q35 23 74 27 t69 -1q37 -4 72 -14l-2 -39q-31 2 -57 -4q-25 -4 -50.5 -15.5t-43.5 -31.5q-23 -25 -30 -60.5t-1 -73.5t25.5 -73t48.5 -53q39 -25 73.5 -32t67.5 -7t70.5 19.5t70.5 60.5t53.5 107.5t20.5 160.5q0 27 -4 68t-17.5 84t-39 84t-66.5 67q-18 12 -45 21.5t-61.5 12.5t-76.5 -4 t-89 -28q-33 -14 -57.5 -31.5t-43.5 -33.5q-23 -20 -39 -39z" />
<glyph unicode="&#xe2f;" horiz-adv-x="671" d="M80 731q0 20 12 49q16 27 43 29h9.5t11.5 -2q10 0 26 -4q16 -6 27 -15q14 -10 16 -20q6 -18 -6 -27q-10 -10 -24 -16q-8 -4 -15.5 -9t-13.5 -11q-14 -8 -14 -29q0 -43 39.5 -78t93.5 -35q55 0 105 43t50 127v66l31 2l147 -51v-9q-10 -2 -17 -3t-13 -1h-19q-10 -4 -12 -12 t-2 -37v-606q0 -43 10 -57q12 -12 56 -13v-12h-187v78v166v235v80q-12 -14 -33 -22q-16 -8 -40.5 -14.5t-57.5 -6.5q-111 0 -167 63.5t-56 151.5z" />
<glyph unicode="&#xe30;" horiz-adv-x="516" d="M82 596q0 35 10 57.5t25 38.5q14 18 35 29q39 -4 54 -18.5t12 -34t-20.5 -40t-43.5 -32.5q-16 -10 -8 -30.5t44 -22.5q47 -4 99.5 -3t95.5 3q51 2 100 6l-2 -23l-131 -67l-24 -4q-10 -2 -20.5 -3t-18.5 -1q-104 0 -155.5 42t-51.5 103zM84 213q-2 35 9 58.5t24 39.5 q14 18 35 29q39 -4 54 -19.5t13 -35t-19.5 -39t-43.5 -33.5q-18 -10 -10 -29.5t44 -23.5q47 -4 99.5 -3t95.5 3q51 2 100 6v-23l-133 -67l-24 -4q-10 -2 -20.5 -3t-16.5 -1q-106 0 -156.5 43t-50.5 102z" />
<glyph unicode="&#xe31;" d="M-410 1069q0 35 10.5 57.5t24.5 38.5q14 18 35 29q39 -4 54.5 -18.5t12.5 -34t-20.5 -40t-44.5 -32.5q-16 -10 -8 -30.5t45 -22.5q47 -4 123 -4h147q84 0 176 2v-23l-133 -67h-215q-104 0 -155.5 42t-51.5 103z" />
<glyph unicode="&#xe32;" horiz-adv-x="641" d="M23 678q10 10 17 18.5t17 16.5q16 16 35 28q41 31 86 52q45 16 96 16q123 0 193 -64q68 -68 68 -190v-12v-473q0 -39 12 -47q16 -10 47 -11v-12h-180l2 526v23v35q0 41 -19 71q-10 16 -20 28.5t-27 23.5q-27 20 -65 30q-41 10 -74 11q-10 0 -21.5 -2.5t-21.5 -6.5 q-12 -4 -23.5 -9t-23.5 -9q-10 -6 -22.5 -12.5t-22.5 -14.5q-10 -6 -19.5 -13t-17.5 -11z" />
<glyph unicode="&#xe33;" horiz-adv-x="641" d="M-438 987q0 47 46 80t111 33q66 0 113 -33t47 -80t-47 -78.5t-113 -31.5t-111.5 31.5t-45.5 78.5zM-338 987q0 -23 17.5 -40t39.5 -17q25 0 41.5 17.5t16.5 39.5q0 25 -16.5 42.5t-41.5 17.5q-23 0 -40 -17.5t-17 -42.5zM27 678q8 10 16 18.5t16 16.5q10 8 17.5 15 t17.5 13q41 33 88 52q45 16 97 16q123 0 190 -64q70 -66 70 -190v-12v-473q0 -39 12 -47q14 -10 45 -11v-12h-180l4 526v23v35q0 41 -19 71q-20 33 -47 52q-33 23 -67 30q-41 10 -74 11q-10 0 -20.5 -2.5t-22.5 -6.5l-22.5 -9l-22.5 -9q-27 -12 -45 -27q-10 -6 -19.5 -13 t-19.5 -11z" />
<glyph unicode="&#xe34;" d="M-715 918v24l131 66h480v-90h-611z" />
<glyph unicode="&#xe35;" d="M-711 922v22l131 68h385v86l78 94h17v-270h-611z" />
<glyph unicode="&#xe36;" d="M-709 922v22l131 68h338q14 0 30.5 11t16.5 36q0 18 -13 32.5t-32 14.5q-27 0 -39 -17.5t-8 -39.5l-20 -13q-23 27 -13.5 69t54.5 58q31 10 59.5 6t52 -20t37 -43t13.5 -57q0 -55 -40 -91t-83 -36h-484z" />
<glyph unicode="&#xe37;" d="M-709 922v22l129 68h242v86l78 94h16v-180h51v86l78 94h17v-270h-2h-609z" />
<glyph unicode="&#xe38;" d="M-266 -139h170v-295h-113v225q0 37 -12 47q-14 10 -45 10v13z" />
<glyph unicode="&#xe39;" d="M-479 -137h170v-185q0 -23 14 -36t37 -13q20 0 34.5 13.5t14.5 35.5v185h113v-135q0 -68 -48.5 -115t-113.5 -47q-68 0 -116 47t-48 115v63q0 37 -12 49q-14 10 -45 10v13z" />
<glyph unicode="&#xe3a;" d="M-244 -162q0 59 60 60q59 -1 59 -60t-59 -59t-60 59z" />
<glyph unicode="&#xe3f;" horiz-adv-x="808" />
<glyph unicode="&#xe40;" horiz-adv-x="329" d="M80 0v82v498v208h119v-710q0 -37 20 -51q23 -14 62 -15v-12h-201z" />
<glyph unicode="&#xe41;" horiz-adv-x="606" d="M80 0v82v498v208h121v-710q0 -37 20 -51t60 -15v-12h-201zM356 0v82v498v208h121v-710q0 -37 21 -51q20 -14 59 -15v-12h-201z" />
<glyph unicode="&#xe42;" horiz-adv-x="329" d="M-180 1135v12q27 35 67 61q35 23 89.5 43.5t132.5 20.5q55 0 100 -13.5t80 -22.5t62.5 -7t49.5 35h29q0 -37 -20.5 -66t-56.5 -42t-85 -8t-108 36q-47 23 -83 23.5t-59 -9.5q-27 -10 -47 -31q68 -25 112 -55.5t68.5 -63t35 -65.5t10.5 -59v-846q0 -37 22 -49 q20 -14 60 -15v-14h-201v84v498v360q0 59 -38 96t-84 58.5t-88 30t-48 8.5z" />
<glyph unicode="&#xe43;" horiz-adv-x="329" d="M-258 1086.5q-6 27.5 0 62.5t27.5 60.5t50 41t62.5 21.5t67 6q57 0 98 -17.5t68.5 -41t42 -48t20.5 -41.5q12 -33 16.5 -77.5t4.5 -96.5v-878q0 -37 22 -49q20 -14 60 -15v-14h-201v84v422v518q0 20 -4 57t-19.5 72t-43 60.5t-74.5 25.5q-72 0 -102 -40t-30 -87 q0 -55 28 -78.5t44 -23.5q14 0 29 10q12 12 16 18t8.5 12.5t8.5 10.5q4 8 16 20q18 10 29 9q8 -2 22 -13q8 -6 17 -20q4 -8 6 -14.5t4 -12.5q-6 -16 -35 -33q-27 -14 -72 -20q-18 -2 -44.5 -1t-45.5 7q-20 6 -39.5 20.5t-35 35t-21.5 48z" />
<glyph unicode="&#xe44;" horiz-adv-x="323" d="M-254 1255v17h127l133 -133l139 133h52v-316v-878q0 -37 20 -49q20 -14 62 -15v-14h-201v84v498v374q0 59 3 99.5t7 68.5q6 31 12 54l-123 -125l-77 77q-31 31 -62 61t-41 40t-20 15t-17 7q-8 2 -14 2z" />
<glyph unicode="&#xe45;" horiz-adv-x="645" />
<glyph unicode="&#xe46;" horiz-adv-x="753" d="M80 610q0 49 21.5 83t52 57.5t61.5 35t49 15.5l101 -101l100 101q66 -10 107.5 -38t65.5 -66t33 -82t9 -83v-571q0 -53 -5 -94t-20 -74q-25 -63 -63 -100q-33 -33 -84 -47q-47 -10 -86 -6q-39 2 -70 18q-29 16 -35 35q2 4 4.5 10t6.5 14q4 10 16 23q8 6 23 10q12 4 28 -6 q12 -12 17 -20q4 -6 7 -12.5t7 -10.5q6 -8 18 -20q10 -8 29 -9q35 -4 51 25q20 31 27 65q4 20 7 39t3 39v60l2 98v479q0 88 -16.5 150.5t-73.5 91.5l-108 -109l-111 109q-23 -12 -41 -33q-16 -16 -28.5 -40.5t-12.5 -57.5q0 -35 11.5 -59.5t25.5 -40t29.5 -23.5t25.5 -8 q16 0 27 10q12 10 18 20q4 4 7 10.5t8 12.5l9 9l9 9q14 12 27 9q12 -2 22 -11q6 -6 19 -22q4 -8 6 -14.5t2 -12.5q-2 -16 -35 -33q-31 -16 -70 -18q-41 -6 -86 6q-18 4 -42.5 17.5t-48 35t-40 52t-16.5 73.5z" />
<glyph unicode="&#xe47;" d="M-457 1034q0 33 15.5 54.5t39 35t52 18.5t55.5 5h100q23 0 31 20q4 8 4 23h72q0 -53 -26.5 -78t-61.5 -25h-125q-6 0 -19.5 -2t-25.5 -7t-22.5 -15t-10.5 -29q0 -18 5 -28.5t14 -16.5q8 -8 18 -10l63 63l62 -61q12 -2 22 2q8 4 15.5 9t7.5 18q0 16 -20.5 20t-36.5 4v27 q6 2 14 4q6 2 13 4t18 2q29 0 58.5 -16.5t29.5 -44.5q0 -35 -21.5 -53.5t-48.5 -26.5q-31 -10 -67 -10l-46 47l-47 -47q-37 4 -65 16q-25 10 -45.5 33.5t-20.5 64.5z" />
<glyph unicode="&#xe48;" d="M-201 1473h113l-8 -201h-97z" />
<glyph unicode="&#xe49;" d="M-383 1270v14q37 0 49 12q14 8 15 54v45q0 45 -15 53q-10 10 -49 10v17h170v-164q31 0 55 16q23 14 40.5 48t17.5 100h112q-2 -57 -24 -103q-18 -39 -60.5 -70.5t-122.5 -31.5h-188z" />
<glyph unicode="&#xe4a;" d="M-414 1370q0 37 15.5 57.5t36.5 30.5q22 13 51 17l35 -33l32 33q27 -6 49 -19q18 -10 35 -30.5t17 -53.5v-51q12 2 22 14q8 10 15.5 30.5t7.5 57.5v52h106v-11q-6 0 -10 -4q-10 -6 -10 -18q0 -80 -48.5 -126t-152.5 -46v100q0 16 -5 25.5t-9 15.5q-6 8 -13 10l-36 -39 l-35 35q-10 -4 -19 -10q-6 -6 -11 -14.5t-5 -22.5q0 -35 28.5 -49t53.5 8l14 -14q-6 -14 -16 -23q-10 -10 -24.5 -16t-37.5 -6q-37 0 -61.5 29.5t-24.5 70.5z" />
<glyph unicode="&#xe4b;" d="M-270 1354v94l96 -8l-8 98h92l-8 -98l96 8v-94l-96 10l8 -94h-92l8 94z" />
<glyph unicode="&#xe4c;" d="M-412 1294q0 61 50.5 103.5t156.5 42.5l350 -2l-2 -23l-131 -67h-217h-98q-37 -2 -45 -22.5t8 -31.5q27 -12 44 -32.5t20.5 -40t-12 -35t-54.5 -17.5q-20 10 -35 29q-14 16 -24.5 39t-10.5 57z" />
<glyph unicode="&#xe4d;" d="M-438 987q0 47 46 80t111 33q66 0 113 -33t47 -80t-47 -78.5t-113 -31.5t-111.5 31.5t-45.5 78.5zM-338 987q0 -23 17.5 -40t39.5 -17q25 0 41.5 17.5t16.5 39.5q0 25 -16.5 42.5t-41.5 17.5q-23 0 -40 -17.5t-17 -42.5z" />
<glyph unicode="&#xe4e;" />
<glyph unicode="&#xe4f;" horiz-adv-x="921" />
<glyph unicode="&#xe50;" horiz-adv-x="903" d="M78 299q0 106 55 178q53 68 139 107q88 35 181 34q98 0 182 -36q82 -33 139 -107q55 -72 55 -176q0 -106 -55 -174q-53 -68 -139 -107q-86 -35 -180 -34q-100 0 -183 34q-84 35 -139 105t-55 176zM205 299q2 -82 41 -145q41 -59 96 -88q53 -29 119 -33q63 -2 119 26 q59 33 90 91q37 57 32 149q-1 82 -40 145q-35 55 -95 88q-51 31 -121 35q-59 2 -118 -26q-51 -27 -88 -88q-35 -57 -35 -154z" />
<glyph unicode="&#xe51;" horiz-adv-x="903" d="M80 299q0 106 55 178q55 70 139 107q86 35 179 34q98 0 182 -36q82 -33 139 -107q55 -72 55 -176q0 -80 -30.5 -139.5t-74.5 -98t-93 -58t-84 -19.5v28q20 8 47 32t51.5 60.5t40.5 86t16 108.5q0 43 -11 79t-29 66q-35 55 -95 88q-51 31 -121 35q-59 2 -118 -26 q-53 -29 -88 -88q-35 -66 -33 -154q0 -84 39 -145q29 -41 59.5 -56.5t57 -14.5t47 11t30.5 23q6 8 8.5 17t2.5 18q0 18 -13 28q-16 12 -30 19l-13.5 9t-11.5 9q-12 8 -6 27q6 12 16 20t27 15q16 4 26 4q8 2 23 2q25 -2 41 -29q12 -29 12 -49q0 -43 -14 -72q-23 -45 -57 -76 q-29 -27 -73 -43t-104 2q-25 6 -58.5 27t-64 54.5t-51 82.5t-20.5 117z" />
<glyph unicode="&#xe52;" horiz-adv-x="1173" d="M53 756q6 16 35 32q31 16 70 19q39 6 86 -6q45 -10 84 -47q37 -31 63 -101q14 -33 19.5 -73.5t5.5 -92.5v-120q0 -55 10 -111.5t42 -104t91 -77t160 -29.5q100 0 153.5 38t77.5 85q29 53 33 123q0 88 -18.5 142t-75.5 83l-109 -108l-108 108q-25 -12 -43 -33 q-16 -16 -28.5 -40.5t-12.5 -57.5q0 -35 12 -57.5t29.5 -34.5t34 -17.5t24.5 -5.5q20 0 29 15q14 16 18 28q4 8 9.5 14.5t9.5 12.5q8 8 24 6q12 -4 23 -18q8 -10 12 -25q6 -16 6 -27q4 -25 -5 -41t-23 -22q-20 -10 -48 -14q-23 -2 -64.5 3t-82.5 25.5t-70.5 62.5t-29.5 116 q0 45 21.5 79.5t52 58t61.5 36t49 16.5l100 -100l101 100q66 -8 108.5 -37t67 -67.5t34 -82.5t9.5 -83q0 -41 -10.5 -99.5t-49.5 -112t-114.5 -92t-206.5 -38.5t-213 31.5t-128 83t-62.5 117t-16.5 130.5q0 29 -1 62.5t-1 64.5v74v59q0 20 -2 40t-6 38t-11.5 34.5 t-15.5 31.5q-18 27 -53 26q-14 0 -29 -10q-12 -12 -18 -21q-4 -4 -7 -10t-8 -12q-8 -14 -16 -18q-14 -12 -29 -9q-6 2 -11 4t-11 7q-10 10 -17 22q-4 8 -6 14.5t-4 12.5z" />
<glyph unicode="&#xe53;" horiz-adv-x="929" d="M80 299q0 106 55 178q53 68 139 107q10 4 21.5 7t21.5 7l138 -137l139 137q18 -6 41 -16q43 -16 76.5 -44t62.5 -63t38 -79t9 -97v-2v-225q0 -41 13 -49q14 -10 47 -11v-12h-185v299q0 43 -7 79t-27 66q-25 41 -60 66l-147 -145l-156 155q-35 -27 -59 -67 q-33 -59 -33 -154q0 -59 11 -109.5t29.5 -85t40 -54t42.5 -19.5q10 0 18 5t14 11q12 12 11 31q0 10 -2 17t-4 18q-6 14 -7 28q0 16 15 23q14 6 26 4q16 -4 29 -8q12 -6 23 -17q4 -4 8 -7t8 -7q16 -23 8 -49q-8 -27 -24 -45q-25 -25 -64 -39q-16 -6 -31.5 -9t-38.5 -3 q-31 0 -71.5 13t-77.5 49t-63.5 96.5t-26.5 156.5z" />
<glyph unicode="&#xe54;" horiz-adv-x="882" d="M78 260v57q4 78 37 140q14 27 34.5 51t50 44.5t70.5 33t97 12.5q43 0 76.5 -3t62.5 -7t54.5 -8.5t51.5 -6.5q57 -4 89 7.5t47 21.5q27 18 26 51q0 14 -10 29l-19 18q-6 4 -11 7.5t-11 7.5q-8 6 -21 18q-8 14 -6 27q2 12 11 22q6 6 22 19q10 4 27 8q16 -6 32 -35 q14 -31 19 -69q4 -43 -8 -87q-6 -23 -21.5 -48t-46.5 -42q-37 -20 -75 -25t-76.5 -3t-81.5 7t-90 5q-59 0 -100.5 -17.5t-66 -45t-34.5 -62.5t-10 -70v-53q0 -41 8 -74q10 -37 26 -59q18 -29 50 -43q33 -16 71 -16q16 0 36 6t37 18.5t28.5 30.5t11.5 41h2q0 10 -1 18.5 t-1 18.5v139h180v-14q-33 0 -47 -11q-12 -10 -12 -47v-86q0 -25 14 -55.5t42 -49t69 -17t96 41.5v-32q-16 -29 -56 -49.5t-87.5 -23.5t-93.5 13.5t-74 63.5q-25 -35 -69 -63.5t-120 -28.5q-66 0 -104 22q-41 20 -72 60q-14 18 -23.5 40.5t-17.5 47.5q-12 49 -12 104z" />
<glyph unicode="&#xe55;" horiz-adv-x="882" d="M80 260v57q4 78 37 140q14 27 34.5 51t51 44.5t71.5 33t97 12.5q53 0 100 -6q14 0 29.5 11t15.5 36q0 18 -12 32.5t-33 14.5q-27 0 -39 -17.5t-8 -39.5l-18 -13q-12 12 -16.5 32t0.5 38.5t18.5 34.5t35.5 24q31 10 58.5 5t48 -21t33 -41.5t12.5 -56.5q0 -33 -18 -53 q10 -2 19 -2.5t19 -2.5q57 -4 88 7.5t46 21.5q27 18 26 51q0 18 -8 29q-12 12 -20 18q-4 4 -10.5 7.5t-12.5 7.5l-9 9l-9 9q-10 18 -9 27q4 14 13 22q6 8 22 19q6 4 13.5 5t11.5 3q20 -6 33 -35q14 -31 18 -69q4 -43 -8 -87q-4 -23 -20.5 -48t-45.5 -42q-37 -20 -74.5 -25 t-77.5 -3t-82 7t-91 5q-59 0 -99.5 -17.5t-65 -45t-35.5 -62.5t-11 -70v-53q0 -18 2 -36.5t6 -37.5q8 -33 29 -59q18 -29 49 -43q29 -16 69 -16q18 0 38 6t37 18.5t28.5 30.5t11.5 41h2q0 10 -1 18.5t-1 18.5v139h180v-14q-33 0 -47 -11q-12 -10 -12 -47v-86q0 -25 14 -55.5 t42 -49t69 -17t96 41.5v-32q-16 -29 -57 -49.5t-88.5 -23.5t-93.5 14.5t-72 64.5q-25 -37 -70 -65.5t-121 -28.5q-29 0 -55.5 5t-48.5 17q-45 23 -70 60q-29 37 -41 88q-14 45 -14 104z" />
<glyph unicode="&#xe56;" horiz-adv-x="845" d="M55 758q6 18 35 33q31 16 70 18q43 4 86 -8q23 -6 44 -17.5t40 -29.5q29 -31 44 -79t-1 -114q98 14 170.5 -4t121 -57t74 -92.5t29.5 -108.5q6 -63 -17.5 -120.5t-68.5 -100.5t-108.5 -68.5t-137.5 -25.5q-16 0 -48 3t-70.5 15t-78.5 34.5t-71 63.5q-20 27 -26.5 57.5 t3 61.5t33 58.5t64.5 46.5q35 16 68.5 19t62.5 -1q33 -4 61 -12l-2 -37q-25 4 -47 0q-20 -4 -44 -12.5t-46 -26.5q-27 -25 -33 -61.5t10.5 -70.5t56.5 -58.5t107 -24.5q35 0 72 14.5t66.5 45t47 77.5t13.5 115q-2 20 -9.5 45.5t-23.5 51.5t-44 50.5t-71 42.5 q-66 29 -136 17.5t-128 -37.5v35q33 33 44.5 73.5t12.5 78.5t-6.5 66.5t-11.5 35.5q-18 27 -53 26q-16 0 -27 -10q-10 -4 -18 -18q-4 -6 -8 -11.5t-9 -11.5q-4 -8 -16 -20q-16 -10 -29 -7q-8 2 -20 11q-6 4 -10 10t-9 12q-4 8 -6 14.5t-2 12.5z" />
<glyph unicode="&#xe57;" horiz-adv-x="1312" d="M80 299q0 106 55 178q55 70 139 107q10 4 20.5 7t20.5 7l131 -129l129 129q10 -4 21.5 -8t21.5 -8q82 -33 140 -107q29 -35 42 -79t13 -107q0 -59 -17.5 -103.5t-37.5 -72.5q-25 -35 -56 -58q57 0 95.5 29t62 73t32.5 99t9 111v120q0 100 25 166t63 101q41 39 86 47 q45 12 84 6q43 -4 70 -19q33 -16 35 -32q0 -6 -2 -12.5t-7 -14.5l-8 -12t-10 -10q-10 -8 -23 -11q-12 -4 -26 9q-8 4 -17 18l-8 12t-8 10q-6 10 -18 21q-10 10 -27 10q-35 0 -53 -26q-16 -25 -27 -66q-4 -18 -6 -37.5t-2 -40.5q-2 -18 -2 -33.5v-25.5v-201q0 -66 -14.5 -128 t-48 -110.5t-90 -78t-142.5 -29.5h-145v27q31 23 53 59q20 33 36.5 84t16.5 129q0 27 -11 71t-30 74q-29 43 -61 66l-140 -137l-147 147q-33 -23 -57 -67q-33 -59 -33 -154q0 -59 11 -109.5t28.5 -85t39 -54t42.5 -19.5q12 0 20 5t14 11q12 12 11 31q-4 20 -8 35 q-4 20 -5 28q-4 16 13 23q16 6 28 4q6 -2 13.5 -3t13.5 -5q12 -6 23 -17q8 -6 16 -14q16 -20 10 -49q-10 -29 -26 -45q-27 -27 -62 -39q-16 -6 -31.5 -9t-38.5 -3q-31 0 -71.5 13t-78.5 49t-63.5 96.5t-25.5 156.5z" />
<glyph unicode="&#xe58;" horiz-adv-x="880" d="M76 260v57q4 78 37 140q14 27 34.5 51t51 44.5t71.5 33t97 12.5q84 0 138 -11.5t107 -13.5q57 -4 88 7.5t45 21.5q27 18 27 51q0 18 -8 29q-12 12 -21 18q-4 4 -10 7.5t-12 7.5l-9 9t-10 9q-10 18 -8 27q4 14 13 22q6 8 22 19q8 4 25 8q20 -6 32 -35q14 -31 19 -69 q4 -43 -8 -87q-4 -23 -20.5 -48t-45.5 -42q-37 -20 -75 -25t-77.5 -3t-81.5 7t-91 5q-59 0 -100.5 -17.5t-66 -45t-34.5 -62.5t-10 -70v-53q0 -59 29.5 -98t67.5 -61.5t72.5 -32t45.5 -9.5l110 109l109 -109q23 12 41 33q16 16 29.5 41t13.5 58q0 35 -12.5 57t-30 34.5 t-33.5 17.5t-25 5q-20 0 -28 -14q-12 -16 -21 -29q-4 -10 -16 -26q-8 -8 -27 -7q-14 8 -20 19q-8 8 -15 24q-2 10 -6 27q-2 25 7.5 41t21.5 23q25 10 49 14q23 2 64 -3t81.5 -25.5t71.5 -62.5t31 -116q0 -45 -22.5 -80t-52.5 -58.5t-60.5 -36.5t-48.5 -15l-101 100 l-100 -100q-10 0 -40 2t-68 11t-80 27.5t-76.5 49t-57 76t-22.5 110.5z" />
<glyph unicode="&#xe59;" horiz-adv-x="856" d="M80 299q0 106 55 178q55 70 139 107q10 4 20.5 7t20.5 7l93 -123q2 53 41.5 88t87.5 35q25 0 46 -8t38 -19q18 -10 34 -24q16 6 33 20q12 12 25.5 31.5t19.5 52.5t-18 58q-12 12 -27 12q-14 4 -26 0q-16 -4 -27 -6q-6 0 -13.5 -1t-13.5 1q-16 4 -24 14q-6 8 -6 23 q-2 8 2 28q6 14 12 25q18 8 49 -2q31 -12 61 -37q29 -25 56 -66q25 -41 24 -92q0 -45 -20.5 -76.5t-42.5 -52.5q-29 -23 -64 -39q-20 29 -57 48.5t-72 3.5q-18 -10 -27.5 -28t-12.5 -37t0 -39.5t12 -33.5l6 -10l223 -299q4 -8 12 -14q14 -14 43 -15v-16h-123l-370 506 q-12 -10 -24.5 -20.5t-24.5 -32.5q-33 -59 -33 -154q0 -59 11 -109.5t29.5 -85t40 -54t42.5 -19.5q10 0 18 5t14 11q12 12 11 31q-2 10 -3 17t-3 18q-6 14 -7 28q-4 16 15 23q14 6 26 4q6 -2 13.5 -3t13.5 -5q8 -4 13 -8.5t12 -8.5l14 -14q18 -23 10 -49q-10 -29 -26 -45 q-27 -27 -62 -39q-16 -6 -31.5 -9t-38.5 -3q-31 0 -71.5 13t-77.5 49t-63.5 96.5t-26.5 156.5z" />
<glyph unicode="&#xe5a;" horiz-adv-x="1124" />
<glyph unicode="&#xe5b;" horiz-adv-x="1427" />
<glyph unicode="&#x2000;" horiz-adv-x="769" />
<glyph unicode="&#x2001;" horiz-adv-x="1538" />
<glyph unicode="&#x2002;" horiz-adv-x="769" />
<glyph unicode="&#x2003;" horiz-adv-x="1538" />
<glyph unicode="&#x2004;" horiz-adv-x="512" />
<glyph unicode="&#x2005;" horiz-adv-x="384" />
<glyph unicode="&#x2006;" horiz-adv-x="256" />
<glyph unicode="&#x2007;" horiz-adv-x="256" />
<glyph unicode="&#x2008;" horiz-adv-x="192" />
<glyph unicode="&#x2009;" horiz-adv-x="307" />
<glyph unicode="&#x200a;" horiz-adv-x="85" />
<glyph unicode="&#x2010;" horiz-adv-x="489" d="M80 358v76h336v-76h-336z" />
<glyph unicode="&#x2011;" horiz-adv-x="489" d="M80 358v76h336v-76h-336z" />
<glyph unicode="&#x2012;" horiz-adv-x="489" d="M80 358v76h336v-76h-336z" />
<glyph unicode="&#x2013;" horiz-adv-x="737" d="M43 338v68h649v-68h-649z" />
<glyph unicode="&#x2014;" horiz-adv-x="1474" d="M45 338v68h1378v-68h-1378z" />
<glyph unicode="&#x2018;" horiz-adv-x="505" d="M150 764q0 74 24.5 127t54 89t55 54.5t29.5 20.5l31 -35q-45 -29 -82 -78t-41 -106q2 0 4 1t6 1q29 0 51.5 -22.5t22.5 -51.5q0 -35 -23.5 -57.5t-52.5 -22.5q-35 0 -57 22.5t-22 57.5z" />
<glyph unicode="&#x2019;" horiz-adv-x="327" d="M82 858q0 25 16 47q18 25 58 25q39 0 69 -31q31 -31 31 -84q0 -33 -14.5 -62.5t-34 -54t-40 -40t-32.5 -21.5l-12 22q29 16 52.5 50t23.5 67q0 4 -4.5 10.5t-8.5 8.5q-4 0 -6 1t-4 1l-26 -2q-25 0 -48 16q-20 14 -20 47z" />
<glyph unicode="&#x201a;" horiz-adv-x="258" d="M27 -195q45 29 81.5 78t41.5 107q-16 -6 -29 -6q-35 0 -58.5 23.5t-23.5 53.5q0 37 25.5 63t62.5 26t65.5 -26t28.5 -65q0 -74 -24.5 -127t-54 -89t-56.5 -53t-29 -19z" />
<glyph unicode="&#x201c;" horiz-adv-x="612" d="M80 750q0 33 14.5 63.5t33.5 54t39.5 40t33.5 22.5l12 -25q-29 -16 -52.5 -50t-23.5 -67q0 -4 4 -9t6 -7q4 -2 13 -2l26 2q24 0 47 -18q20 -16 21 -47q0 -27 -18 -48q-14 -23 -58 -22q-39 0 -67 29q-31 31 -31 84zM367 750q0 33 14 63.5t33.5 54t40 40t32.5 22.5l13 -25 q-29 -16 -52.5 -50t-23.5 -67q0 -4 4 -9t8 -7t10 -2l27 2q24 0 47 -18q20 -14 21 -47q0 -25 -17 -48q-16 -23 -59 -22q-39 0 -68 29q-31 31 -30 84z" />
<glyph unicode="&#x201d;" horiz-adv-x="614" d="M80 858q0 25 18 47q19 25 58 25q37 0 67 -31q31 -31 31 -84q0 -33 -14.5 -62.5t-34 -54t-40 -40t-32.5 -21.5l-10 22q29 16 51.5 50t22.5 67q0 4 -4.5 10.5t-6.5 8.5q-4 0 -6 1t-6 1l-27 -2q-23 0 -45 16q-23 16 -22 47zM369 858q0 29 16 47q18 25 57 25t70 -31 q29 -33 29 -84q0 -33 -14.5 -62.5t-34 -54t-40 -40t-32.5 -21.5l-10 22q29 16 52 50t23 67q0 4 -4 10.5t-8 8.5q-4 0 -6 1t-6 1l-25 -2q-25 0 -47 16q-20 14 -20 47z" />
<glyph unicode="&#x201e;" horiz-adv-x="548" d="M27 -195q45 29 81.5 78t41.5 107q-16 -6 -29 -6q-35 0 -58.5 23.5t-23.5 53.5q0 37 25.5 63t62.5 26t65.5 -26t28.5 -65q0 -74 -24.5 -127t-54 -89t-56.5 -53t-29 -19zM303 -195q45 29 82 78t41 107q-16 -6 -29 -6q-35 0 -58.5 23.5t-23.5 53.5q0 37 26 63t62 26 q37 0 66 -26t29 -65q0 -74 -24.5 -127t-54.5 -89t-56.5 -53t-28.5 -19z" />
<glyph unicode="&#x2020;" horiz-adv-x="782" />
<glyph unicode="&#x2021;" horiz-adv-x="782" />
<glyph unicode="&#x2022;" horiz-adv-x="714" d="M115 483q0 51 18.5 95.5t51 77t77.5 51t96 18.5t95.5 -18.5t77 -51t51 -76.5t18.5 -96q0 -51 -18.5 -95t-51 -76.5t-77 -52t-95.5 -19.5t-96 19.5t-77.5 52t-51 76.5t-18.5 95z" />
<glyph unicode="&#x2026;" horiz-adv-x="1474" d="M172 53q0 35 22.5 56.5t51.5 21.5q35 0 57.5 -21.5t22.5 -56.5q0 -31 -22.5 -52t-57.5 -21q-29 0 -51.5 21t-22.5 52zM655 53q0 35 22.5 56.5t51.5 21.5q35 0 57.5 -21.5t22.5 -56.5q0 -31 -22.5 -52t-57.5 -21q-29 0 -51.5 21t-22.5 52zM1141 53q0 35 22.5 56.5 t50.5 21.5q35 0 57.5 -21.5t22.5 -56.5q0 -31 -22.5 -52t-57.5 -21q-29 0 -51 21t-22 52z" />
<glyph unicode="&#x202f;" horiz-adv-x="307" />
<glyph unicode="&#x2030;" horiz-adv-x="1703" />
<glyph unicode="&#x2032;" horiz-adv-x="266" />
<glyph unicode="&#x2033;" horiz-adv-x="444" />
<glyph unicode="&#x2039;" horiz-adv-x="382" />
<glyph unicode="&#x203a;" horiz-adv-x="382" />
<glyph unicode="&#x2044;" horiz-adv-x="217" />
<glyph unicode="&#x205f;" horiz-adv-x="384" />
<glyph unicode="&#x20ac;" horiz-adv-x="989" />
<glyph unicode="&#x2113;" horiz-adv-x="436" />
<glyph unicode="&#x2122;" horiz-adv-x="1167" />
<glyph unicode="&#x2126;" horiz-adv-x="948" />
<glyph unicode="&#x212e;" horiz-adv-x="653" />
<glyph unicode="&#x2202;" horiz-adv-x="661" />
<glyph unicode="&#x2206;" horiz-adv-x="813" />
<glyph unicode="&#x220f;" horiz-adv-x="983" />
<glyph unicode="&#x2211;" horiz-adv-x="1060" />
<glyph unicode="&#x2212;" horiz-adv-x="690" />
<glyph unicode="&#x221a;" horiz-adv-x="720" />
<glyph unicode="&#x221e;" horiz-adv-x="1290" />
<glyph unicode="&#x222b;" horiz-adv-x="505" />
<glyph unicode="&#x2248;" horiz-adv-x="796" />
<glyph unicode="&#x2260;" horiz-adv-x="716" />
<glyph unicode="&#x2264;" horiz-adv-x="718" />
<glyph unicode="&#x2265;" horiz-adv-x="718" />
<glyph unicode="&#x25ca;" horiz-adv-x="806" />
<glyph unicode="&#x25cc;" horiz-adv-x="835" />
<glyph unicode="&#x25fc;" horiz-adv-x="655" d="M0 0v655h655v-655h-655z" />
<glyph unicode="&#xf700;" horiz-adv-x="649" d="M25 680q10 10 17 17.5t15 17.5l17.5 14l17.5 14q41 33 88 50q45 16 96 16q82 0 144 -29q2 76 22 135q25 63 64 101q18 18 39.5 29.5t44.5 17.5q41 12 84 8q38 -2 69 -18q33 -16 35 -33q0 -14 -8 -25q-6 -16 -16 -22q-8 -8 -23 -12q-14 -4 -26 8q-12 6 -19 18 q-4 6 -7 12.5t-7 10.5q-8 12 -21 20q-8 8 -26 8q-35 0 -54 -26q-8 -14 -14 -30.5t-10 -35.5q-8 -35 -8 -78v-59l-2 -281v-456q0 -37 12 -49q10 -8 47 -9v-14h-182l2 201q0 39 -23 73q-4 6 -10 14.5t-14 16.5q-12 16 -33 35q-10 10 -18.5 16t-18.5 13q-18 12 -35 12 q-18 0 -28 -14q-14 -18 -19 -29q-4 -8 -9 -14.5t-9 -12.5q-10 -10 -25 -6q-10 4 -22 17q-10 12 -13 26q-6 14 -6 27q0 8 -1 13t-1 9q6 31 31 41q25 12 47 13q43 0 72 -15q16 -8 30.5 -18t28.5 -23q20 -20 45 -55q18 -29 31 -55l2 241v23v35q0 39 -19 73q-16 27 -47 52 q-29 20 -65 28q-18 6 -37 8.5t-37 2.5q-23 0 -43 -7q-25 -10 -47 -20q-12 -6 -23.5 -12.5t-21.5 -12.5q-10 -8 -19.5 -14t-17.5 -12z" />
<glyph unicode="&#xf701;" d="M-891 918v22l131 68h479v-90h-610z" />
<glyph unicode="&#xf702;" d="M-895 922v22l131 68h385v86l78 94h16v-270h-610z" />
<glyph unicode="&#xf703;" d="M-893 922v22l129 68h340q14 0 30.5 11t16.5 34q0 18 -13 33.5t-34 15.5q-25 0 -38 -18.5t-9 -40.5l-18 -11q-25 27 -15 69t55 58q31 10 60 6t52.5 -20t36.5 -43t13 -57q0 -55 -40 -91t-83 -36h-483z" />
<glyph unicode="&#xf704;" d="M-899 922v22l131 68h242v86l77 94h17v-180h51v86l78 94h14v-270h-610z" />
<glyph unicode="&#xf705;" d="M-414 1124h113l-8 -200h-97z" />
<glyph unicode="&#xf706;" d="M-698 922v14q37 0 49 12q14 8 14 53v46q0 41 -14 53q-10 10 -49 10v16h170v-163q31 0 55 16q23 14 40 48t17 99h113q-2 -57 -25 -102q-18 -39 -60 -70.5t-122 -31.5h-188z" />
<glyph unicode="&#xf707;" d="M-713 1022q0 37 15.5 57.5t35.5 30.5q23 12 52 16l35 -32l32 32q27 -6 49 -18q18 -10 35 -30.5t17 -53.5v-51q12 2 22 14q8 10 15.5 30.5t7.5 57.5v51h106v-10q-6 0 -10 -4q-10 -6 -10 -20q0 -78 -48.5 -124t-152.5 -46v100q0 16 -5 25.5t-9 15.5q-6 8 -13 10l-36 -39 l-35 35q-10 -2 -19 -10q-6 -6 -11 -15.5t-5 -21.5q0 -35 28.5 -49.5t53.5 6.5l14 -12q-6 -14 -16 -23q-10 -10 -24.5 -16t-37.5 -6q-37 0 -61.5 29.5t-24.5 70.5z" />
<glyph unicode="&#xf708;" d="M-547 1001v95l96 -9l-8 99h94l-10 -99l96 9v-95l-96 9l10 -92h-94l8 92z" />
<glyph unicode="&#xf709;" d="M-535 1001q0 61 51.5 104.5t155.5 43.5l351 -4l-3 -23l-131 -67h-215h-100q-37 -2 -45 -22.5t8 -28.5q27 -14 44.5 -35t20.5 -40.5t-12.5 -34.5t-54.5 -17q-20 10 -35 28q-14 16 -24.5 39t-10.5 57z" />
<glyph unicode="&#xf70a;" d="M-207 1122h113l-8 -200h-97z" />
<glyph unicode="&#xf70b;" d="M-391 920v14q37 0 49 12q14 8 14 53v45q0 41 -14 54q-10 10 -49 10v14h168v-161q33 0 57 16q23 14 40 47t17 98h113q-2 -57 -24 -102q-18 -39 -61.5 -69.5t-123.5 -30.5h-186z" />
<glyph unicode="&#xf70c;" d="M-426 1020q0 37 15.5 57.5t35.5 30.5q22 12 51 16l33 -34l35 34q27 -6 49 -18q18 -10 34.5 -30.5t16.5 -53.5v-51q12 2 23 14q8 10 15 30.5t7 57.5v51h107v-10q-6 0 -10 -4q-10 -6 -11 -20q0 -78 -48 -124t-152 -46v100q0 16 -5.5 24.5t-9.5 14.5q-6 6 -12 10l-39 -37 l-35 35q-8 -2 -16 -10q-6 -6 -11 -15.5t-5 -21.5q0 -35 28.5 -49.5t53.5 6.5l14 -12q-6 -14 -17 -23q-10 -10 -24 -16t-37 -6q-37 0 -61.5 29.5t-24.5 70.5z" />
<glyph unicode="&#xf70d;" d="M-285 1001v95l97 -9l-9 99h93l-9 -99l97 9v-95l-97 9l9 -92h-93l9 92z" />
<glyph unicode="&#xf70e;" d="M-410 1006q0 61 51.5 103t155.5 42l350 -2v-23l-133 -67h-215h-100q-37 -2 -45 -22.5t8 -30.5q27 -12 44.5 -33t20.5 -40.5t-12.5 -34.5t-54.5 -17q-20 10 -35 28q-14 16 -24.5 39t-10.5 58z" />
<glyph unicode="&#xf70f;" horiz-adv-x="1247" d="M59 662v12q41 35 95 61q47 23 114.5 43.5t157.5 20.5q59 0 122.5 -20.5t96.5 -55.5q35 -39 45 -85t10 -103v-277q0 -16 6.5 -51t25 -70t53 -60.5t92.5 -25.5q55 0 89.5 26.5t54 62.5t26 70t6.5 48v526h123l-5 -518q0 -47 -18 -97t-55 -92t-92.5 -69.5t-131.5 -27.5 q-88 0 -144 27.5t-89 69.5t-46 92t-13 97v252q0 109 -54.5 158t-152.5 49q-53 0 -87 -6t-52 -12q-23 -8 -31 -17q10 -10 14 -23.5t8 -25.5q4 -14 4 -31v-428q0 -10 2.5 -27.5t8.5 -36t18 -32.5t33 -20q29 -8 66.5 -1t66.5 23v-35q-20 -23 -49 -41q-25 -16 -59.5 -26.5 t-79.5 -1.5q-47 6 -73 30.5t-38 55t-15 60.5t-3 48v236q0 90 2 200q0 31 -13 41q-12 6 -39 7z" />
<glyph unicode="&#xf710;" d="M-535 1065q0 35 10.5 57.5t24.5 38.5q14 18 35 29q39 -4 54.5 -18.5t12.5 -34t-20.5 -39t-44.5 -33.5q-16 -10 -8 -29.5t45 -23.5q47 -4 123 -4h147q84 0 176 2v-23l-131 -67h-217q-104 0 -155.5 43t-51.5 102z" />
<glyph unicode="&#xf711;" d="M-598 989q0 47 46 80t112 33t112.5 -33t46.5 -80t-47 -79.5t-112 -32.5q-66 0 -112 32.5t-46 79.5zM-498 989q0 -25 17.5 -41t40.5 -16q25 0 42 16.5t17 40.5q0 23 -17 40.5t-42 17.5q-23 0 -40.5 -17.5t-17.5 -40.5z" />
<glyph unicode="&#xf712;" d="M-645 1032q0 33 15.5 54.5t39 34t52 17.5t55.5 5h100q23 0 31 20q4 8 4 23h72q0 -53 -27 -77t-62 -24h-124q-6 0 -19.5 -2t-26 -7t-22.5 -16t-10 -30q0 -18 5 -28.5t13 -16.5q8 -8 19 -10l63 63l61 -61q12 -2 23 2q8 4 15.5 9t7.5 18q0 16 -20.5 20t-37.5 4v27q6 2 15 4 q6 2 13 4t17 2q29 0 58.5 -15.5t29.5 -45.5q0 -35 -21.5 -53.5t-47.5 -26.5q-31 -10 -68 -11l-45 48l-47 -48q-37 4 -66 17q-25 10 -45 33.5t-20 66.5z" />
<glyph unicode="&#xf713;" d="M-381 1477h113l-11 -201h-94z" />
<glyph unicode="&#xf714;" d="M-453 1274v14q35 0 52 10q12 12 12 54v47q0 41 -12 53q-16 10 -52 10v15h170v-162q31 0 56 16q23 14 40 47t17 99h115q-2 -57 -25 -103q-20 -39 -62 -69.5t-122 -30.5h-189z" />
<glyph unicode="&#xf715;" d="M-551 1374q0 37 15.5 57.5t35.5 30.5q22 13 51 17l33 -35l35 35q27 -6 49 -19q18 -10 34.5 -30.5t16.5 -53.5v-51q12 2 23 14q8 10 15 31t7 57v52h107v-13q-6 -2 -10 -4q-10 -6 -11 -18q0 -80 -48 -125t-152 -45v100q0 16 -5 24.5t-10 14.5q-6 6 -12 10l-39 -37l-35 35 q-8 -2 -16 -10q-6 -6 -11 -15.5t-5 -21.5q0 -35 28.5 -49t53.5 6l14 -14q-6 -14 -16 -23q-10 -8 -24.5 -14t-37.5 -6q-37 0 -61.5 29.5t-24.5 70.5z" />
<glyph unicode="&#xf716;" d="M-465 1354v94l96 -8l-8 98h92l-8 -98l96 8v-94l-96 8l8 -92h-92l8 92z" />
<glyph unicode="&#xf717;" d="M-600 1294q0 61 50 103.5t157 42.5l350 -2l-2 -23l-131 -67h-215h-101q-37 -2 -45 -22.5t9 -31.5q27 -12 44 -32.5t20 -40t-12.5 -35t-53.5 -17.5q-20 10 -35 29q-14 16 -24.5 39t-10.5 57z" />
<glyph unicode="&#xf718;" d="M-309 -477h170v-297h-113v225q0 39 -12 49q-14 10 -45 11v12z" />
<glyph unicode="&#xf719;" d="M-455 -475h170v-184q0 -23 14.5 -37.5t34.5 -14.5t35 14.5t15 37.5v184h112v-135q0 -68 -47 -115t-115 -47t-114.5 47t-46.5 115v63q0 37 -13 47q-10 10 -45 11v14z" />
<glyph unicode="&#xf71a;" d="M-188 -530q0 59 59 59t59 -59t-59 -60q-59 0 -59 60z" />
<glyph unicode="&#xf71b;" horiz-adv-x="872" />
<glyph unicode="&#xf71c;" horiz-adv-x="872" />
<glyph unicode="&#xf71d;" horiz-adv-x="919" />
<glyph unicode="&#xfb01;" horiz-adv-x="765" />
<glyph unicode="&#xfb02;" horiz-adv-x="641" d="M-528 987q0 47 46 80t111 33q66 0 113 -33t47 -80t-47 -78.5t-113 -31.5t-111.5 31.5t-45.5 78.5zM-428 987q0 -23 17.5 -40t39.5 -17q25 0 41.5 17.5t16.5 39.5q0 25 -16.5 42.5t-41.5 17.5q-23 0 -40 -17.5t-17 -42.5zM27 678q8 10 16 18.5t16 16.5q10 8 17.5 15 t17.5 13q41 33 88 52q45 16 97 16q123 0 190 -64q70 -66 70 -190v-12v-473q0 -39 12 -47q14 -10 45 -11v-12h-180l4 526v23v35q0 41 -19 71q-20 33 -47 52q-33 23 -67 30q-41 10 -74 11q-10 0 -20.5 -2.5t-22.5 -6.5l-22.5 -9l-22.5 -9q-27 -12 -45 -27q-10 -6 -19.5 -13 t-19.5 -11z" />
<glyph horiz-adv-x="645" d="M-598 989q0 47 46 80t112 33t112.5 -33t46.5 -80t-47 -79.5t-112 -32.5q-66 0 -112 32.5t-46 79.5zM-498 989q0 -25 17.5 -41t40.5 -16q25 0 42 16.5t17 40.5q0 23 -17 40.5t-42 17.5q-23 0 -40.5 -17.5t-17.5 -40.5zM25 680q10 10 17 17.5t17 15.5q8 10 16.5 16t18.5 14 q43 31 86 50q45 16 96 16q127 0 193 -64q68 -63 68 -190v-12v-471q0 -41 12 -49q14 -10 47 -11v-12h-182l4 526v23v35q0 41 -19 71q-18 33 -47 54q-29 20 -65 28q-41 10 -74 11q-25 0 -43 -9q-20 -6 -47 -18q-10 -6 -22.5 -12.5t-22.5 -12.5q-10 -8 -19.5 -14t-17.5 -12z " />
<glyph />
<glyph horiz-adv-x="765" />
</font>
</defs>
</svg>
